<mxfile host="app.diagrams.net" agent="Mozilla/5.0 (Macintosh; Intel Mac OS X 10_15_7) AppleWebKit/537.36 (KHTML, like Gecko) Chrome/137.0.0.0 Safari/537.36" version="27.1.4">
  <diagram id="R2lEEEUBdFMjLlhIrx00" name="Page-1">
    <mxGraphModel dx="1664" dy="2086" grid="0" gridSize="10" guides="1" tooltips="1" connect="1" arrows="1" fold="1" page="1" pageScale="1" pageWidth="2000" pageHeight="1200" background="light-dark(#ffffff, #121212)" math="0" shadow="0" extFonts="Permanent Marker^https://fonts.googleapis.com/css?family=Permanent+Marker">
      <root>
        <mxCell id="0" />
        <mxCell id="1" parent="0" />
        <mxCell id="etqEuHp1loXPazJlGjv_-223" value="" style="group" parent="1" vertex="1" connectable="0">
          <mxGeometry x="560" y="329.90999999999997" width="200" height="210" as="geometry" />
        </mxCell>
        <mxCell id="etqEuHp1loXPazJlGjv_-149" value="USERS" style="shape=table;startSize=30;container=1;collapsible=1;childLayout=tableLayout;fixedRows=1;rowLines=0;fontStyle=1;align=center;resizeLast=1;html=1;swimlaneFillColor=none;" parent="etqEuHp1loXPazJlGjv_-223" vertex="1">
          <mxGeometry width="200" height="210" as="geometry" />
        </mxCell>
        <mxCell id="etqEuHp1loXPazJlGjv_-150" value="" style="shape=tableRow;horizontal=0;startSize=0;swimlaneHead=0;swimlaneBody=0;fillColor=none;collapsible=0;dropTarget=0;points=[[0,0.5],[1,0.5]];portConstraint=eastwest;top=0;left=0;right=0;bottom=1;swimlaneFillColor=none;" parent="etqEuHp1loXPazJlGjv_-149" vertex="1">
          <mxGeometry y="30" width="200" height="30" as="geometry" />
        </mxCell>
        <mxCell id="etqEuHp1loXPazJlGjv_-151" value="PK" style="shape=partialRectangle;connectable=0;fillColor=none;top=0;left=0;bottom=0;right=0;fontStyle=1;overflow=hidden;whiteSpace=wrap;html=1;swimlaneFillColor=none;" parent="etqEuHp1loXPazJlGjv_-150" vertex="1">
          <mxGeometry width="30" height="30" as="geometry">
            <mxRectangle width="30" height="30" as="alternateBounds" />
          </mxGeometry>
        </mxCell>
        <mxCell id="etqEuHp1loXPazJlGjv_-152" value="user_id" style="shape=partialRectangle;connectable=0;fillColor=none;top=0;left=0;bottom=0;right=0;align=left;spacingLeft=6;fontStyle=1;overflow=hidden;swimlaneFillColor=none;strokeColor=default;whiteSpace=wrap;html=1;fontColor=default;" parent="etqEuHp1loXPazJlGjv_-150" vertex="1">
          <mxGeometry x="30" width="170" height="30" as="geometry">
            <mxRectangle width="170" height="30" as="alternateBounds" />
          </mxGeometry>
        </mxCell>
        <mxCell id="etqEuHp1loXPazJlGjv_-153" value="" style="shape=tableRow;horizontal=0;startSize=0;swimlaneHead=0;swimlaneBody=0;fillColor=none;collapsible=0;dropTarget=0;points=[[0,0.5],[1,0.5]];portConstraint=eastwest;top=0;left=0;right=0;bottom=1;swimlaneFillColor=none;" parent="etqEuHp1loXPazJlGjv_-149" vertex="1">
          <mxGeometry y="60" width="200" height="30" as="geometry" />
        </mxCell>
        <mxCell id="etqEuHp1loXPazJlGjv_-154" value="UK" style="shape=partialRectangle;connectable=0;fillColor=none;top=0;left=0;bottom=0;right=0;editable=1;overflow=hidden;whiteSpace=wrap;html=1;swimlaneFillColor=none;" parent="etqEuHp1loXPazJlGjv_-153" vertex="1">
          <mxGeometry width="30" height="30" as="geometry">
            <mxRectangle width="30" height="30" as="alternateBounds" />
          </mxGeometry>
        </mxCell>
        <mxCell id="etqEuHp1loXPazJlGjv_-155" value="username" style="shape=partialRectangle;connectable=0;fillColor=none;top=0;left=0;bottom=0;right=0;align=left;spacingLeft=6;overflow=hidden;whiteSpace=wrap;html=1;swimlaneFillColor=none;" parent="etqEuHp1loXPazJlGjv_-153" vertex="1">
          <mxGeometry x="30" width="170" height="30" as="geometry">
            <mxRectangle width="170" height="30" as="alternateBounds" />
          </mxGeometry>
        </mxCell>
        <mxCell id="etqEuHp1loXPazJlGjv_-169" value="" style="shape=tableRow;horizontal=0;startSize=0;swimlaneHead=0;swimlaneBody=0;fillColor=none;collapsible=0;dropTarget=0;points=[[0,0.5],[1,0.5]];portConstraint=eastwest;top=0;left=0;right=0;bottom=1;swimlaneFillColor=none;" parent="etqEuHp1loXPazJlGjv_-149" vertex="1">
          <mxGeometry y="90" width="200" height="30" as="geometry" />
        </mxCell>
        <mxCell id="etqEuHp1loXPazJlGjv_-170" value="" style="shape=partialRectangle;connectable=0;fillColor=none;top=0;left=0;bottom=0;right=0;editable=1;overflow=hidden;whiteSpace=wrap;html=1;swimlaneFillColor=none;" parent="etqEuHp1loXPazJlGjv_-169" vertex="1">
          <mxGeometry width="30" height="30" as="geometry">
            <mxRectangle width="30" height="30" as="alternateBounds" />
          </mxGeometry>
        </mxCell>
        <mxCell id="etqEuHp1loXPazJlGjv_-171" value="email" style="shape=partialRectangle;connectable=0;fillColor=none;top=0;left=0;bottom=0;right=0;align=left;spacingLeft=6;overflow=hidden;whiteSpace=wrap;html=1;swimlaneFillColor=none;" parent="etqEuHp1loXPazJlGjv_-169" vertex="1">
          <mxGeometry x="30" width="170" height="30" as="geometry">
            <mxRectangle width="170" height="30" as="alternateBounds" />
          </mxGeometry>
        </mxCell>
        <mxCell id="etqEuHp1loXPazJlGjv_-166" value="" style="shape=tableRow;horizontal=0;startSize=0;swimlaneHead=0;swimlaneBody=0;fillColor=none;collapsible=0;dropTarget=0;points=[[0,0.5],[1,0.5]];portConstraint=eastwest;top=0;left=0;right=0;bottom=1;swimlaneFillColor=none;" parent="etqEuHp1loXPazJlGjv_-149" vertex="1">
          <mxGeometry y="120" width="200" height="30" as="geometry" />
        </mxCell>
        <mxCell id="etqEuHp1loXPazJlGjv_-167" value="" style="shape=partialRectangle;connectable=0;fillColor=none;top=0;left=0;bottom=0;right=0;editable=1;overflow=hidden;whiteSpace=wrap;html=1;swimlaneFillColor=none;" parent="etqEuHp1loXPazJlGjv_-166" vertex="1">
          <mxGeometry width="30" height="30" as="geometry">
            <mxRectangle width="30" height="30" as="alternateBounds" />
          </mxGeometry>
        </mxCell>
        <mxCell id="etqEuHp1loXPazJlGjv_-168" value="password_hash" style="shape=partialRectangle;connectable=0;fillColor=none;top=0;left=0;bottom=0;right=0;align=left;spacingLeft=6;overflow=hidden;whiteSpace=wrap;html=1;swimlaneFillColor=none;" parent="etqEuHp1loXPazJlGjv_-166" vertex="1">
          <mxGeometry x="30" width="170" height="30" as="geometry">
            <mxRectangle width="170" height="30" as="alternateBounds" />
          </mxGeometry>
        </mxCell>
        <mxCell id="etqEuHp1loXPazJlGjv_-159" value="" style="shape=tableRow;horizontal=0;startSize=0;swimlaneHead=0;swimlaneBody=0;fillColor=none;collapsible=0;dropTarget=0;points=[[0,0.5],[1,0.5]];portConstraint=eastwest;top=0;left=0;right=0;bottom=1;swimlaneFillColor=none;" parent="etqEuHp1loXPazJlGjv_-149" vertex="1">
          <mxGeometry y="150" width="200" height="30" as="geometry" />
        </mxCell>
        <mxCell id="etqEuHp1loXPazJlGjv_-160" value="" style="shape=partialRectangle;connectable=0;fillColor=none;top=0;left=0;bottom=0;right=0;editable=1;overflow=hidden;whiteSpace=wrap;html=1;swimlaneFillColor=none;" parent="etqEuHp1loXPazJlGjv_-159" vertex="1">
          <mxGeometry width="30" height="30" as="geometry">
            <mxRectangle width="30" height="30" as="alternateBounds" />
          </mxGeometry>
        </mxCell>
        <mxCell id="etqEuHp1loXPazJlGjv_-161" value="create_at" style="shape=partialRectangle;connectable=0;fillColor=none;top=0;left=0;bottom=0;right=0;align=left;spacingLeft=6;overflow=hidden;whiteSpace=wrap;html=1;swimlaneFillColor=none;" parent="etqEuHp1loXPazJlGjv_-159" vertex="1">
          <mxGeometry x="30" width="170" height="30" as="geometry">
            <mxRectangle width="170" height="30" as="alternateBounds" />
          </mxGeometry>
        </mxCell>
        <mxCell id="etqEuHp1loXPazJlGjv_-156" value="" style="shape=tableRow;horizontal=0;startSize=0;swimlaneHead=0;swimlaneBody=0;fillColor=none;collapsible=0;dropTarget=0;points=[[0,0.5],[1,0.5]];portConstraint=eastwest;top=0;left=0;right=0;bottom=0;swimlaneFillColor=none;" parent="etqEuHp1loXPazJlGjv_-149" vertex="1">
          <mxGeometry y="180" width="200" height="30" as="geometry" />
        </mxCell>
        <mxCell id="etqEuHp1loXPazJlGjv_-157" value="" style="shape=partialRectangle;connectable=0;fillColor=none;top=0;left=0;bottom=0;right=0;editable=1;overflow=hidden;whiteSpace=wrap;html=1;swimlaneFillColor=none;" parent="etqEuHp1loXPazJlGjv_-156" vertex="1">
          <mxGeometry width="30" height="30" as="geometry">
            <mxRectangle width="30" height="30" as="alternateBounds" />
          </mxGeometry>
        </mxCell>
        <mxCell id="etqEuHp1loXPazJlGjv_-158" value="update_at" style="shape=partialRectangle;connectable=0;fillColor=none;top=0;left=0;bottom=0;right=0;align=left;spacingLeft=6;overflow=hidden;whiteSpace=wrap;html=1;swimlaneFillColor=none;" parent="etqEuHp1loXPazJlGjv_-156" vertex="1">
          <mxGeometry x="30" width="170" height="30" as="geometry">
            <mxRectangle width="170" height="30" as="alternateBounds" />
          </mxGeometry>
        </mxCell>
        <mxCell id="etqEuHp1loXPazJlGjv_-197" value="UK" style="shape=partialRectangle;connectable=0;fillColor=none;top=0;left=0;bottom=0;right=0;editable=1;overflow=hidden;whiteSpace=wrap;html=1;swimlaneFillColor=none;" parent="etqEuHp1loXPazJlGjv_-223" vertex="1">
          <mxGeometry y="90" width="35.294117647058826" height="30" as="geometry">
            <mxRectangle width="30" height="30" as="alternateBounds" />
          </mxGeometry>
        </mxCell>
        <mxCell id="etqEuHp1loXPazJlGjv_-198" value="string" style="shape=partialRectangle;connectable=0;fillColor=none;top=0;left=1;bottom=0;right=0;editable=1;overflow=hidden;whiteSpace=wrap;html=1;swimlaneFillColor=none;" parent="etqEuHp1loXPazJlGjv_-223" vertex="1">
          <mxGeometry x="129.41176470588235" y="60" width="70.58823529411765" height="30" as="geometry">
            <mxRectangle width="30" height="30" as="alternateBounds" />
          </mxGeometry>
        </mxCell>
        <mxCell id="etqEuHp1loXPazJlGjv_-199" value="string" style="shape=partialRectangle;connectable=0;fillColor=none;top=0;left=1;bottom=0;right=0;editable=1;overflow=hidden;whiteSpace=wrap;html=1;swimlaneFillColor=none;" parent="etqEuHp1loXPazJlGjv_-223" vertex="1">
          <mxGeometry x="129.41176470588235" y="90" width="70.58823529411765" height="30" as="geometry">
            <mxRectangle width="30" height="30" as="alternateBounds" />
          </mxGeometry>
        </mxCell>
        <mxCell id="etqEuHp1loXPazJlGjv_-200" value="string" style="shape=partialRectangle;connectable=0;fillColor=none;top=0;left=1;bottom=0;right=0;editable=1;overflow=hidden;whiteSpace=wrap;html=1;swimlaneFillColor=none;" parent="etqEuHp1loXPazJlGjv_-223" vertex="1">
          <mxGeometry x="129.41176470588235" y="120" width="70.58823529411765" height="30" as="geometry">
            <mxRectangle width="30" height="30" as="alternateBounds" />
          </mxGeometry>
        </mxCell>
        <mxCell id="etqEuHp1loXPazJlGjv_-201" value="datetime" style="shape=partialRectangle;connectable=0;fillColor=none;top=0;left=1;bottom=0;right=0;editable=1;overflow=hidden;whiteSpace=wrap;html=1;swimlaneFillColor=none;" parent="etqEuHp1loXPazJlGjv_-223" vertex="1">
          <mxGeometry x="129.41176470588235" y="150" width="70.58823529411765" height="30" as="geometry">
            <mxRectangle width="30" height="30" as="alternateBounds" />
          </mxGeometry>
        </mxCell>
        <mxCell id="etqEuHp1loXPazJlGjv_-202" value="int" style="shape=partialRectangle;connectable=0;fillColor=none;top=0;left=1;bottom=0;right=0;editable=1;overflow=hidden;whiteSpace=wrap;html=1;swimlaneFillColor=none;" parent="etqEuHp1loXPazJlGjv_-223" vertex="1">
          <mxGeometry x="129.41176470588235" y="30" width="70.58823529411765" height="30" as="geometry">
            <mxRectangle width="30" height="30" as="alternateBounds" />
          </mxGeometry>
        </mxCell>
        <mxCell id="etqEuHp1loXPazJlGjv_-203" value="datetime" style="shape=partialRectangle;connectable=0;fillColor=none;top=0;left=1;bottom=0;right=0;editable=1;overflow=hidden;whiteSpace=wrap;html=1;swimlaneFillColor=none;" parent="etqEuHp1loXPazJlGjv_-223" vertex="1">
          <mxGeometry x="129.41176470588235" y="180" width="70.58823529411765" height="30" as="geometry">
            <mxRectangle width="30" height="30" as="alternateBounds" />
          </mxGeometry>
        </mxCell>
        <mxCell id="etqEuHp1loXPazJlGjv_-259" value="" style="group" parent="1" vertex="1" connectable="0">
          <mxGeometry x="280" y="719.91" width="180" height="270" as="geometry" />
        </mxCell>
        <mxCell id="etqEuHp1loXPazJlGjv_-224" value="" style="group;strokeColor=default;" parent="etqEuHp1loXPazJlGjv_-259" vertex="1" connectable="0">
          <mxGeometry width="180" height="270" as="geometry" />
        </mxCell>
        <mxCell id="etqEuHp1loXPazJlGjv_-225" value="TRANSFERS" style="shape=table;startSize=30;container=1;collapsible=1;childLayout=tableLayout;fixedRows=1;rowLines=0;fontStyle=1;align=center;resizeLast=1;html=1;swimlaneFillColor=none;" parent="etqEuHp1loXPazJlGjv_-224" vertex="1">
          <mxGeometry width="180" height="300" as="geometry" />
        </mxCell>
        <mxCell id="etqEuHp1loXPazJlGjv_-226" value="" style="shape=tableRow;horizontal=0;startSize=0;swimlaneHead=0;swimlaneBody=0;fillColor=none;collapsible=0;dropTarget=0;points=[[0,0.5],[1,0.5]];portConstraint=eastwest;top=0;left=0;right=0;bottom=1;swimlaneFillColor=none;" parent="etqEuHp1loXPazJlGjv_-225" vertex="1">
          <mxGeometry y="30" width="180" height="30" as="geometry" />
        </mxCell>
        <mxCell id="etqEuHp1loXPazJlGjv_-227" value="PK" style="shape=partialRectangle;connectable=0;fillColor=none;top=0;left=0;bottom=0;right=0;fontStyle=1;overflow=hidden;whiteSpace=wrap;html=1;swimlaneFillColor=none;" parent="etqEuHp1loXPazJlGjv_-226" vertex="1">
          <mxGeometry width="30" height="30" as="geometry">
            <mxRectangle width="30" height="30" as="alternateBounds" />
          </mxGeometry>
        </mxCell>
        <mxCell id="etqEuHp1loXPazJlGjv_-228" value="transfer_id" style="shape=partialRectangle;connectable=0;fillColor=none;top=0;left=0;bottom=0;right=0;align=left;spacingLeft=6;fontStyle=1;overflow=hidden;swimlaneFillColor=none;strokeColor=default;whiteSpace=wrap;html=1;fontColor=default;" parent="etqEuHp1loXPazJlGjv_-226" vertex="1">
          <mxGeometry x="30" width="150" height="30" as="geometry">
            <mxRectangle width="150" height="30" as="alternateBounds" />
          </mxGeometry>
        </mxCell>
        <mxCell id="etqEuHp1loXPazJlGjv_-229" value="" style="shape=tableRow;horizontal=0;startSize=0;swimlaneHead=0;swimlaneBody=0;fillColor=none;collapsible=0;dropTarget=0;points=[[0,0.5],[1,0.5]];portConstraint=eastwest;top=0;left=0;right=0;bottom=1;swimlaneFillColor=none;" parent="etqEuHp1loXPazJlGjv_-225" vertex="1">
          <mxGeometry y="60" width="180" height="30" as="geometry" />
        </mxCell>
        <mxCell id="etqEuHp1loXPazJlGjv_-230" value="FK" style="shape=partialRectangle;connectable=0;fillColor=none;top=0;left=0;bottom=0;right=0;editable=1;overflow=hidden;whiteSpace=wrap;html=1;swimlaneFillColor=none;" parent="etqEuHp1loXPazJlGjv_-229" vertex="1">
          <mxGeometry width="30" height="30" as="geometry">
            <mxRectangle width="30" height="30" as="alternateBounds" />
          </mxGeometry>
        </mxCell>
        <mxCell id="etqEuHp1loXPazJlGjv_-231" value="from_user_id" style="shape=partialRectangle;connectable=0;fillColor=none;top=0;left=0;bottom=0;right=0;align=left;spacingLeft=6;overflow=hidden;whiteSpace=wrap;html=1;swimlaneFillColor=none;" parent="etqEuHp1loXPazJlGjv_-229" vertex="1">
          <mxGeometry x="30" width="150" height="30" as="geometry">
            <mxRectangle width="150" height="30" as="alternateBounds" />
          </mxGeometry>
        </mxCell>
        <mxCell id="etqEuHp1loXPazJlGjv_-232" value="" style="shape=tableRow;horizontal=0;startSize=0;swimlaneHead=0;swimlaneBody=0;fillColor=none;collapsible=0;dropTarget=0;points=[[0,0.5],[1,0.5]];portConstraint=eastwest;top=0;left=0;right=0;bottom=1;swimlaneFillColor=none;" parent="etqEuHp1loXPazJlGjv_-225" vertex="1">
          <mxGeometry y="90" width="180" height="30" as="geometry" />
        </mxCell>
        <mxCell id="etqEuHp1loXPazJlGjv_-233" value="" style="shape=partialRectangle;connectable=0;fillColor=none;top=0;left=0;bottom=0;right=0;editable=1;overflow=hidden;whiteSpace=wrap;html=1;swimlaneFillColor=none;" parent="etqEuHp1loXPazJlGjv_-232" vertex="1">
          <mxGeometry width="30" height="30" as="geometry">
            <mxRectangle width="30" height="30" as="alternateBounds" />
          </mxGeometry>
        </mxCell>
        <mxCell id="etqEuHp1loXPazJlGjv_-234" value="to_user_id" style="shape=partialRectangle;connectable=0;fillColor=none;top=0;left=0;bottom=0;right=0;align=left;spacingLeft=6;overflow=hidden;whiteSpace=wrap;html=1;swimlaneFillColor=none;" parent="etqEuHp1loXPazJlGjv_-232" vertex="1">
          <mxGeometry x="30" width="150" height="30" as="geometry">
            <mxRectangle width="150" height="30" as="alternateBounds" />
          </mxGeometry>
        </mxCell>
        <mxCell id="etqEuHp1loXPazJlGjv_-235" value="" style="shape=tableRow;horizontal=0;startSize=0;swimlaneHead=0;swimlaneBody=0;fillColor=none;collapsible=0;dropTarget=0;points=[[0,0.5],[1,0.5]];portConstraint=eastwest;top=0;left=0;right=0;bottom=1;swimlaneFillColor=none;" parent="etqEuHp1loXPazJlGjv_-225" vertex="1">
          <mxGeometry y="120" width="180" height="30" as="geometry" />
        </mxCell>
        <mxCell id="etqEuHp1loXPazJlGjv_-236" value="FK" style="shape=partialRectangle;connectable=0;fillColor=none;top=0;left=0;bottom=0;right=0;editable=1;overflow=hidden;whiteSpace=wrap;html=1;swimlaneFillColor=none;" parent="etqEuHp1loXPazJlGjv_-235" vertex="1">
          <mxGeometry width="30" height="30" as="geometry">
            <mxRectangle width="30" height="30" as="alternateBounds" />
          </mxGeometry>
        </mxCell>
        <mxCell id="etqEuHp1loXPazJlGjv_-237" value="currency_id" style="shape=partialRectangle;connectable=0;fillColor=none;top=0;left=0;bottom=0;right=0;align=left;spacingLeft=6;overflow=hidden;whiteSpace=wrap;html=1;swimlaneFillColor=none;" parent="etqEuHp1loXPazJlGjv_-235" vertex="1">
          <mxGeometry x="30" width="150" height="30" as="geometry">
            <mxRectangle width="150" height="30" as="alternateBounds" />
          </mxGeometry>
        </mxCell>
        <mxCell id="etqEuHp1loXPazJlGjv_-238" value="" style="shape=tableRow;horizontal=0;startSize=0;swimlaneHead=0;swimlaneBody=0;fillColor=none;collapsible=0;dropTarget=0;points=[[0,0.5],[1,0.5]];portConstraint=eastwest;top=0;left=0;right=0;bottom=1;swimlaneFillColor=none;" parent="etqEuHp1loXPazJlGjv_-225" vertex="1">
          <mxGeometry y="150" width="180" height="30" as="geometry" />
        </mxCell>
        <mxCell id="etqEuHp1loXPazJlGjv_-239" value="" style="shape=partialRectangle;connectable=0;fillColor=none;top=0;left=0;bottom=0;right=0;editable=1;overflow=hidden;whiteSpace=wrap;html=1;swimlaneFillColor=none;" parent="etqEuHp1loXPazJlGjv_-238" vertex="1">
          <mxGeometry width="30" height="30" as="geometry">
            <mxRectangle width="30" height="30" as="alternateBounds" />
          </mxGeometry>
        </mxCell>
        <mxCell id="etqEuHp1loXPazJlGjv_-240" value="amount" style="shape=partialRectangle;connectable=0;fillColor=none;top=0;left=0;bottom=0;right=0;align=left;spacingLeft=6;overflow=hidden;whiteSpace=wrap;html=1;swimlaneFillColor=none;" parent="etqEuHp1loXPazJlGjv_-238" vertex="1">
          <mxGeometry x="30" width="150" height="30" as="geometry">
            <mxRectangle width="150" height="30" as="alternateBounds" />
          </mxGeometry>
        </mxCell>
        <mxCell id="etqEuHp1loXPazJlGjv_-241" value="" style="shape=tableRow;horizontal=0;startSize=0;swimlaneHead=0;swimlaneBody=0;fillColor=none;collapsible=0;dropTarget=0;points=[[0,0.5],[1,0.5]];portConstraint=eastwest;top=0;left=0;right=0;bottom=0;swimlaneFillColor=none;" parent="etqEuHp1loXPazJlGjv_-225" vertex="1">
          <mxGeometry y="180" width="180" height="30" as="geometry" />
        </mxCell>
        <mxCell id="etqEuHp1loXPazJlGjv_-242" value="" style="shape=partialRectangle;connectable=0;fillColor=none;top=0;left=0;bottom=1;right=0;editable=1;overflow=hidden;whiteSpace=wrap;html=1;swimlaneFillColor=none;" parent="etqEuHp1loXPazJlGjv_-241" vertex="1">
          <mxGeometry width="30" height="30" as="geometry">
            <mxRectangle width="30" height="30" as="alternateBounds" />
          </mxGeometry>
        </mxCell>
        <mxCell id="etqEuHp1loXPazJlGjv_-243" value="status" style="shape=partialRectangle;connectable=0;fillColor=none;top=0;left=0;bottom=0;right=0;align=left;spacingLeft=6;overflow=hidden;whiteSpace=wrap;html=1;swimlaneFillColor=none;" parent="etqEuHp1loXPazJlGjv_-241" vertex="1">
          <mxGeometry x="30" width="150" height="30" as="geometry">
            <mxRectangle width="150" height="30" as="alternateBounds" />
          </mxGeometry>
        </mxCell>
        <mxCell id="etqEuHp1loXPazJlGjv_-251" value="" style="shape=tableRow;horizontal=0;startSize=0;swimlaneHead=0;swimlaneBody=0;fillColor=none;collapsible=0;dropTarget=0;points=[[0,0.5],[1,0.5]];portConstraint=eastwest;top=0;left=0;right=0;bottom=0;swimlaneFillColor=none;" parent="etqEuHp1loXPazJlGjv_-225" vertex="1">
          <mxGeometry y="210" width="180" height="30" as="geometry" />
        </mxCell>
        <mxCell id="etqEuHp1loXPazJlGjv_-252" value="" style="shape=partialRectangle;connectable=0;fillColor=none;top=0;left=1;bottom=1;right=0;editable=1;overflow=hidden;whiteSpace=wrap;html=1;swimlaneFillColor=none;" parent="etqEuHp1loXPazJlGjv_-251" vertex="1">
          <mxGeometry width="30" height="30" as="geometry">
            <mxRectangle width="30" height="30" as="alternateBounds" />
          </mxGeometry>
        </mxCell>
        <mxCell id="etqEuHp1loXPazJlGjv_-253" value="description" style="shape=partialRectangle;connectable=0;fillColor=none;top=1;left=1;bottom=1;right=0;align=left;spacingLeft=6;overflow=hidden;whiteSpace=wrap;html=1;swimlaneFillColor=none;" parent="etqEuHp1loXPazJlGjv_-251" vertex="1">
          <mxGeometry x="30" width="150" height="30" as="geometry">
            <mxRectangle width="150" height="30" as="alternateBounds" />
          </mxGeometry>
        </mxCell>
        <mxCell id="etqEuHp1loXPazJlGjv_-254" value="" style="shape=tableRow;horizontal=0;startSize=0;swimlaneHead=0;swimlaneBody=0;fillColor=none;collapsible=0;dropTarget=0;points=[[0,0.5],[1,0.5]];portConstraint=eastwest;top=0;left=0;right=0;bottom=0;swimlaneFillColor=none;" parent="etqEuHp1loXPazJlGjv_-225" vertex="1">
          <mxGeometry y="240" width="180" height="30" as="geometry" />
        </mxCell>
        <mxCell id="etqEuHp1loXPazJlGjv_-255" value="" style="shape=partialRectangle;connectable=0;fillColor=none;top=0;left=0;bottom=0;right=0;editable=1;overflow=hidden;whiteSpace=wrap;html=1;swimlaneFillColor=none;" parent="etqEuHp1loXPazJlGjv_-254" vertex="1">
          <mxGeometry width="30" height="30" as="geometry">
            <mxRectangle width="30" height="30" as="alternateBounds" />
          </mxGeometry>
        </mxCell>
        <mxCell id="etqEuHp1loXPazJlGjv_-256" value="create_at" style="shape=partialRectangle;connectable=0;fillColor=none;top=0;left=0;bottom=0;right=0;align=left;spacingLeft=6;overflow=hidden;whiteSpace=wrap;html=1;swimlaneFillColor=none;" parent="etqEuHp1loXPazJlGjv_-254" vertex="1">
          <mxGeometry x="30" width="150" height="30" as="geometry">
            <mxRectangle width="150" height="30" as="alternateBounds" />
          </mxGeometry>
        </mxCell>
        <mxCell id="QP6FGKmBum78utNL4Y1V-70" value="" style="shape=tableRow;horizontal=0;startSize=0;swimlaneHead=0;swimlaneBody=0;fillColor=none;collapsible=0;dropTarget=0;points=[[0,0.5],[1,0.5]];portConstraint=eastwest;top=0;left=0;right=0;bottom=0;swimlaneFillColor=none;" vertex="1" parent="etqEuHp1loXPazJlGjv_-225">
          <mxGeometry y="270" width="180" height="30" as="geometry" />
        </mxCell>
        <mxCell id="QP6FGKmBum78utNL4Y1V-71" value="" style="shape=partialRectangle;connectable=0;fillColor=none;top=0;left=0;bottom=0;right=0;editable=1;overflow=hidden;whiteSpace=wrap;html=1;swimlaneFillColor=none;" vertex="1" parent="QP6FGKmBum78utNL4Y1V-70">
          <mxGeometry width="30" height="30" as="geometry">
            <mxRectangle width="30" height="30" as="alternateBounds" />
          </mxGeometry>
        </mxCell>
        <mxCell id="QP6FGKmBum78utNL4Y1V-72" value="update_at" style="shape=partialRectangle;connectable=0;fillColor=none;top=0;left=0;bottom=0;right=0;align=left;spacingLeft=6;overflow=hidden;whiteSpace=wrap;html=1;swimlaneFillColor=none;" vertex="1" parent="QP6FGKmBum78utNL4Y1V-70">
          <mxGeometry x="30" width="150" height="30" as="geometry">
            <mxRectangle width="150" height="30" as="alternateBounds" />
          </mxGeometry>
        </mxCell>
        <mxCell id="etqEuHp1loXPazJlGjv_-244" value="FK" style="shape=partialRectangle;connectable=0;fillColor=none;top=0;left=0;bottom=0;right=0;editable=1;overflow=hidden;whiteSpace=wrap;html=1;swimlaneFillColor=none;" parent="etqEuHp1loXPazJlGjv_-224" vertex="1">
          <mxGeometry y="90" width="31.764705882352942" height="30" as="geometry">
            <mxRectangle width="30" height="30" as="alternateBounds" />
          </mxGeometry>
        </mxCell>
        <mxCell id="etqEuHp1loXPazJlGjv_-245" value="int" style="shape=partialRectangle;connectable=0;fillColor=none;top=0;left=1;bottom=0;right=0;editable=1;overflow=hidden;whiteSpace=wrap;html=1;swimlaneFillColor=none;" parent="etqEuHp1loXPazJlGjv_-224" vertex="1">
          <mxGeometry x="127.05882352941177" y="60" width="52.94117647058824" height="30" as="geometry">
            <mxRectangle width="30" height="30" as="alternateBounds" />
          </mxGeometry>
        </mxCell>
        <mxCell id="etqEuHp1loXPazJlGjv_-246" value="int" style="shape=partialRectangle;connectable=0;fillColor=none;top=0;left=1;bottom=0;right=0;editable=1;overflow=hidden;whiteSpace=wrap;html=1;swimlaneFillColor=none;" parent="etqEuHp1loXPazJlGjv_-224" vertex="1">
          <mxGeometry x="127.05882352941177" y="90" width="52.94117647058824" height="30" as="geometry">
            <mxRectangle width="30" height="30" as="alternateBounds" />
          </mxGeometry>
        </mxCell>
        <mxCell id="etqEuHp1loXPazJlGjv_-247" value="int" style="shape=partialRectangle;connectable=0;fillColor=none;top=0;left=1;bottom=0;right=0;editable=1;overflow=hidden;whiteSpace=wrap;html=1;swimlaneFillColor=none;" parent="etqEuHp1loXPazJlGjv_-224" vertex="1">
          <mxGeometry x="127.05882352941177" y="120" width="52.94117647058824" height="30" as="geometry">
            <mxRectangle width="30" height="30" as="alternateBounds" />
          </mxGeometry>
        </mxCell>
        <mxCell id="etqEuHp1loXPazJlGjv_-248" value="decimal" style="shape=partialRectangle;connectable=0;fillColor=none;top=0;left=1;bottom=0;right=0;editable=1;overflow=hidden;whiteSpace=wrap;html=1;swimlaneFillColor=none;" parent="etqEuHp1loXPazJlGjv_-224" vertex="1">
          <mxGeometry x="127.05882352941177" y="150" width="52.94117647058824" height="30" as="geometry">
            <mxRectangle width="30" height="30" as="alternateBounds" />
          </mxGeometry>
        </mxCell>
        <mxCell id="etqEuHp1loXPazJlGjv_-249" value="int" style="shape=partialRectangle;connectable=0;fillColor=none;top=0;left=1;bottom=0;right=0;editable=1;overflow=hidden;whiteSpace=wrap;html=1;swimlaneFillColor=none;" parent="etqEuHp1loXPazJlGjv_-224" vertex="1">
          <mxGeometry x="127.05882352941177" y="30" width="52.94117647058824" height="30" as="geometry">
            <mxRectangle width="30" height="30" as="alternateBounds" />
          </mxGeometry>
        </mxCell>
        <mxCell id="etqEuHp1loXPazJlGjv_-250" value="string" style="shape=partialRectangle;connectable=0;fillColor=none;top=0;left=1;bottom=0;right=0;editable=1;overflow=hidden;whiteSpace=wrap;html=1;swimlaneFillColor=none;" parent="etqEuHp1loXPazJlGjv_-224" vertex="1">
          <mxGeometry x="127.05882352941177" y="180" width="52.94117647058824" height="30" as="geometry">
            <mxRectangle width="30" height="30" as="alternateBounds" />
          </mxGeometry>
        </mxCell>
        <mxCell id="etqEuHp1loXPazJlGjv_-258" value="datetime" style="shape=partialRectangle;connectable=0;fillColor=none;top=0;left=1;bottom=0;right=0;editable=1;overflow=hidden;whiteSpace=wrap;html=1;swimlaneFillColor=none;" parent="etqEuHp1loXPazJlGjv_-224" vertex="1">
          <mxGeometry x="127.05882352941177" y="240" width="52.94117647058824" height="30" as="geometry">
            <mxRectangle width="30" height="30" as="alternateBounds" />
          </mxGeometry>
        </mxCell>
        <mxCell id="etqEuHp1loXPazJlGjv_-257" value="string" style="shape=partialRectangle;connectable=0;fillColor=none;top=0;left=1;bottom=0;right=0;editable=1;overflow=hidden;whiteSpace=wrap;html=1;swimlaneFillColor=none;" parent="etqEuHp1loXPazJlGjv_-259" vertex="1">
          <mxGeometry x="127.05882352941177" y="210" width="52.94117647058824" height="30" as="geometry">
            <mxRectangle width="30" height="30" as="alternateBounds" />
          </mxGeometry>
        </mxCell>
        <mxCell id="etqEuHp1loXPazJlGjv_-327" value="" style="group" parent="1" vertex="1" connectable="0">
          <mxGeometry x="570" y="739.91" width="170" height="330" as="geometry" />
        </mxCell>
        <mxCell id="etqEuHp1loXPazJlGjv_-296" value="" style="group;strokeColor=default;" parent="etqEuHp1loXPazJlGjv_-327" vertex="1" connectable="0">
          <mxGeometry width="170" height="330" as="geometry" />
        </mxCell>
        <mxCell id="etqEuHp1loXPazJlGjv_-297" value="USER_SESSIONS" style="shape=table;startSize=30;container=1;collapsible=1;childLayout=tableLayout;fixedRows=1;rowLines=0;fontStyle=1;align=center;resizeLast=1;html=1;swimlaneFillColor=none;" parent="etqEuHp1loXPazJlGjv_-296" vertex="1">
          <mxGeometry width="170" height="330" as="geometry" />
        </mxCell>
        <mxCell id="etqEuHp1loXPazJlGjv_-298" value="" style="shape=tableRow;horizontal=0;startSize=0;swimlaneHead=0;swimlaneBody=0;fillColor=none;collapsible=0;dropTarget=0;points=[[0,0.5],[1,0.5]];portConstraint=eastwest;top=0;left=0;right=0;bottom=1;swimlaneFillColor=none;" parent="etqEuHp1loXPazJlGjv_-297" vertex="1">
          <mxGeometry y="30" width="170" height="30" as="geometry" />
        </mxCell>
        <mxCell id="etqEuHp1loXPazJlGjv_-299" value="PK" style="shape=partialRectangle;connectable=0;fillColor=none;top=0;left=0;bottom=0;right=0;fontStyle=1;overflow=hidden;whiteSpace=wrap;html=1;swimlaneFillColor=none;" parent="etqEuHp1loXPazJlGjv_-298" vertex="1">
          <mxGeometry width="30" height="30" as="geometry">
            <mxRectangle width="30" height="30" as="alternateBounds" />
          </mxGeometry>
        </mxCell>
        <mxCell id="etqEuHp1loXPazJlGjv_-300" value="session_id" style="shape=partialRectangle;connectable=0;fillColor=none;top=0;left=0;bottom=0;right=0;align=left;spacingLeft=6;fontStyle=1;overflow=hidden;swimlaneFillColor=none;strokeColor=default;whiteSpace=wrap;html=1;fontColor=default;" parent="etqEuHp1loXPazJlGjv_-298" vertex="1">
          <mxGeometry x="30" width="140" height="30" as="geometry">
            <mxRectangle width="140" height="30" as="alternateBounds" />
          </mxGeometry>
        </mxCell>
        <mxCell id="etqEuHp1loXPazJlGjv_-301" value="" style="shape=tableRow;horizontal=0;startSize=0;swimlaneHead=0;swimlaneBody=0;fillColor=none;collapsible=0;dropTarget=0;points=[[0,0.5],[1,0.5]];portConstraint=eastwest;top=0;left=0;right=0;bottom=1;swimlaneFillColor=none;" parent="etqEuHp1loXPazJlGjv_-297" vertex="1">
          <mxGeometry y="60" width="170" height="30" as="geometry" />
        </mxCell>
        <mxCell id="etqEuHp1loXPazJlGjv_-302" value="FK" style="shape=partialRectangle;connectable=0;fillColor=none;top=0;left=0;bottom=0;right=0;editable=1;overflow=hidden;whiteSpace=wrap;html=1;swimlaneFillColor=none;" parent="etqEuHp1loXPazJlGjv_-301" vertex="1">
          <mxGeometry width="30" height="30" as="geometry">
            <mxRectangle width="30" height="30" as="alternateBounds" />
          </mxGeometry>
        </mxCell>
        <mxCell id="etqEuHp1loXPazJlGjv_-303" value="user_id" style="shape=partialRectangle;connectable=0;fillColor=none;top=0;left=0;bottom=0;right=0;align=left;spacingLeft=6;overflow=hidden;whiteSpace=wrap;html=1;swimlaneFillColor=none;" parent="etqEuHp1loXPazJlGjv_-301" vertex="1">
          <mxGeometry x="30" width="140" height="30" as="geometry">
            <mxRectangle width="140" height="30" as="alternateBounds" />
          </mxGeometry>
        </mxCell>
        <mxCell id="etqEuHp1loXPazJlGjv_-304" value="" style="shape=tableRow;horizontal=0;startSize=0;swimlaneHead=0;swimlaneBody=0;fillColor=none;collapsible=0;dropTarget=0;points=[[0,0.5],[1,0.5]];portConstraint=eastwest;top=0;left=0;right=0;bottom=1;swimlaneFillColor=none;" parent="etqEuHp1loXPazJlGjv_-297" vertex="1">
          <mxGeometry y="90" width="170" height="30" as="geometry" />
        </mxCell>
        <mxCell id="etqEuHp1loXPazJlGjv_-305" value="" style="shape=partialRectangle;connectable=0;fillColor=none;top=0;left=0;bottom=0;right=0;editable=1;overflow=hidden;whiteSpace=wrap;html=1;swimlaneFillColor=none;" parent="etqEuHp1loXPazJlGjv_-304" vertex="1">
          <mxGeometry width="30" height="30" as="geometry">
            <mxRectangle width="30" height="30" as="alternateBounds" />
          </mxGeometry>
        </mxCell>
        <mxCell id="etqEuHp1loXPazJlGjv_-306" value="token_hash" style="shape=partialRectangle;connectable=0;fillColor=none;top=0;left=0;bottom=0;right=0;align=left;spacingLeft=6;overflow=hidden;whiteSpace=wrap;html=1;swimlaneFillColor=none;" parent="etqEuHp1loXPazJlGjv_-304" vertex="1">
          <mxGeometry x="30" width="140" height="30" as="geometry">
            <mxRectangle width="140" height="30" as="alternateBounds" />
          </mxGeometry>
        </mxCell>
        <mxCell id="etqEuHp1loXPazJlGjv_-307" value="" style="shape=tableRow;horizontal=0;startSize=0;swimlaneHead=0;swimlaneBody=0;fillColor=none;collapsible=0;dropTarget=0;points=[[0,0.5],[1,0.5]];portConstraint=eastwest;top=0;left=0;right=0;bottom=1;swimlaneFillColor=none;" parent="etqEuHp1loXPazJlGjv_-297" vertex="1">
          <mxGeometry y="120" width="170" height="30" as="geometry" />
        </mxCell>
        <mxCell id="etqEuHp1loXPazJlGjv_-308" value="" style="shape=partialRectangle;connectable=0;fillColor=none;top=0;left=0;bottom=0;right=0;editable=1;overflow=hidden;whiteSpace=wrap;html=1;swimlaneFillColor=none;" parent="etqEuHp1loXPazJlGjv_-307" vertex="1">
          <mxGeometry width="30" height="30" as="geometry">
            <mxRectangle width="30" height="30" as="alternateBounds" />
          </mxGeometry>
        </mxCell>
        <mxCell id="etqEuHp1loXPazJlGjv_-309" value="login_time" style="shape=partialRectangle;connectable=0;fillColor=none;top=0;left=0;bottom=0;right=0;align=left;spacingLeft=6;overflow=hidden;whiteSpace=wrap;html=1;swimlaneFillColor=none;" parent="etqEuHp1loXPazJlGjv_-307" vertex="1">
          <mxGeometry x="30" width="140" height="30" as="geometry">
            <mxRectangle width="140" height="30" as="alternateBounds" />
          </mxGeometry>
        </mxCell>
        <mxCell id="etqEuHp1loXPazJlGjv_-310" value="" style="shape=tableRow;horizontal=0;startSize=0;swimlaneHead=0;swimlaneBody=0;fillColor=none;collapsible=0;dropTarget=0;points=[[0,0.5],[1,0.5]];portConstraint=eastwest;top=0;left=0;right=0;bottom=1;swimlaneFillColor=none;" parent="etqEuHp1loXPazJlGjv_-297" vertex="1">
          <mxGeometry y="150" width="170" height="30" as="geometry" />
        </mxCell>
        <mxCell id="etqEuHp1loXPazJlGjv_-311" value="" style="shape=partialRectangle;connectable=0;fillColor=none;top=0;left=0;bottom=0;right=0;editable=1;overflow=hidden;whiteSpace=wrap;html=1;swimlaneFillColor=none;" parent="etqEuHp1loXPazJlGjv_-310" vertex="1">
          <mxGeometry width="30" height="30" as="geometry">
            <mxRectangle width="30" height="30" as="alternateBounds" />
          </mxGeometry>
        </mxCell>
        <mxCell id="etqEuHp1loXPazJlGjv_-312" value="logout_time" style="shape=partialRectangle;connectable=0;fillColor=none;top=0;left=0;bottom=0;right=0;align=left;spacingLeft=6;overflow=hidden;whiteSpace=wrap;html=1;swimlaneFillColor=none;" parent="etqEuHp1loXPazJlGjv_-310" vertex="1">
          <mxGeometry x="30" width="140" height="30" as="geometry">
            <mxRectangle width="140" height="30" as="alternateBounds" />
          </mxGeometry>
        </mxCell>
        <mxCell id="etqEuHp1loXPazJlGjv_-313" value="" style="shape=tableRow;horizontal=0;startSize=0;swimlaneHead=0;swimlaneBody=0;fillColor=none;collapsible=0;dropTarget=0;points=[[0,0.5],[1,0.5]];portConstraint=eastwest;top=0;left=0;right=0;bottom=0;swimlaneFillColor=none;" parent="etqEuHp1loXPazJlGjv_-297" vertex="1">
          <mxGeometry y="180" width="170" height="30" as="geometry" />
        </mxCell>
        <mxCell id="etqEuHp1loXPazJlGjv_-314" value="" style="shape=partialRectangle;connectable=0;fillColor=none;top=0;left=0;bottom=1;right=0;editable=1;overflow=hidden;whiteSpace=wrap;html=1;swimlaneFillColor=none;" parent="etqEuHp1loXPazJlGjv_-313" vertex="1">
          <mxGeometry width="30" height="30" as="geometry">
            <mxRectangle width="30" height="30" as="alternateBounds" />
          </mxGeometry>
        </mxCell>
        <mxCell id="etqEuHp1loXPazJlGjv_-315" value="ip_address" style="shape=partialRectangle;connectable=0;fillColor=none;top=0;left=0;bottom=1;right=0;align=left;spacingLeft=6;overflow=hidden;whiteSpace=wrap;html=1;swimlaneFillColor=none;" parent="etqEuHp1loXPazJlGjv_-313" vertex="1">
          <mxGeometry x="30" width="140" height="30" as="geometry">
            <mxRectangle width="140" height="30" as="alternateBounds" />
          </mxGeometry>
        </mxCell>
        <mxCell id="etqEuHp1loXPazJlGjv_-323" value="" style="shape=tableRow;horizontal=0;startSize=0;swimlaneHead=0;swimlaneBody=0;fillColor=none;collapsible=0;dropTarget=0;points=[[0,0.5],[1,0.5]];portConstraint=eastwest;top=0;left=0;right=0;bottom=0;swimlaneFillColor=none;" parent="etqEuHp1loXPazJlGjv_-297" vertex="1">
          <mxGeometry y="210" width="170" height="30" as="geometry" />
        </mxCell>
        <mxCell id="etqEuHp1loXPazJlGjv_-324" value="" style="shape=partialRectangle;connectable=0;fillColor=none;top=0;left=0;bottom=0;right=0;editable=1;overflow=hidden;whiteSpace=wrap;html=1;swimlaneFillColor=none;" parent="etqEuHp1loXPazJlGjv_-323" vertex="1">
          <mxGeometry width="30" height="30" as="geometry">
            <mxRectangle width="30" height="30" as="alternateBounds" />
          </mxGeometry>
        </mxCell>
        <mxCell id="etqEuHp1loXPazJlGjv_-325" value="is_active" style="shape=partialRectangle;connectable=0;fillColor=none;top=0;left=0;bottom=0;right=0;align=left;spacingLeft=6;overflow=hidden;whiteSpace=wrap;html=1;swimlaneFillColor=none;" parent="etqEuHp1loXPazJlGjv_-323" vertex="1">
          <mxGeometry x="30" width="140" height="30" as="geometry">
            <mxRectangle width="140" height="30" as="alternateBounds" />
          </mxGeometry>
        </mxCell>
        <mxCell id="QP6FGKmBum78utNL4Y1V-7" value="" style="shape=tableRow;horizontal=0;startSize=0;swimlaneHead=0;swimlaneBody=0;fillColor=none;collapsible=0;dropTarget=0;points=[[0,0.5],[1,0.5]];portConstraint=eastwest;top=0;left=0;right=0;bottom=1;swimlaneFillColor=none;" vertex="1" parent="etqEuHp1loXPazJlGjv_-297">
          <mxGeometry y="240" width="170" height="30" as="geometry" />
        </mxCell>
        <mxCell id="QP6FGKmBum78utNL4Y1V-8" value="" style="shape=partialRectangle;connectable=0;fillColor=none;top=1;left=0;bottom=0;right=0;editable=1;overflow=hidden;whiteSpace=wrap;html=1;swimlaneFillColor=none;" vertex="1" parent="QP6FGKmBum78utNL4Y1V-7">
          <mxGeometry width="30" height="30" as="geometry">
            <mxRectangle width="30" height="30" as="alternateBounds" />
          </mxGeometry>
        </mxCell>
        <mxCell id="QP6FGKmBum78utNL4Y1V-9" value="status" style="shape=partialRectangle;connectable=0;fillColor=none;top=1;left=0;bottom=0;right=0;align=left;spacingLeft=6;overflow=hidden;whiteSpace=wrap;html=1;swimlaneFillColor=none;" vertex="1" parent="QP6FGKmBum78utNL4Y1V-7">
          <mxGeometry x="30" width="140" height="30" as="geometry">
            <mxRectangle width="140" height="30" as="alternateBounds" />
          </mxGeometry>
        </mxCell>
        <mxCell id="QP6FGKmBum78utNL4Y1V-10" value="" style="shape=tableRow;horizontal=0;startSize=0;swimlaneHead=0;swimlaneBody=0;fillColor=none;collapsible=0;dropTarget=0;points=[[0,0.5],[1,0.5]];portConstraint=eastwest;top=0;left=0;right=0;bottom=1;swimlaneFillColor=none;" vertex="1" parent="etqEuHp1loXPazJlGjv_-297">
          <mxGeometry y="270" width="170" height="30" as="geometry" />
        </mxCell>
        <mxCell id="QP6FGKmBum78utNL4Y1V-11" value="" style="shape=partialRectangle;connectable=0;fillColor=none;top=0;left=0;bottom=0;right=0;editable=1;overflow=hidden;whiteSpace=wrap;html=1;swimlaneFillColor=none;" vertex="1" parent="QP6FGKmBum78utNL4Y1V-10">
          <mxGeometry width="30" height="30" as="geometry">
            <mxRectangle width="30" height="30" as="alternateBounds" />
          </mxGeometry>
        </mxCell>
        <mxCell id="QP6FGKmBum78utNL4Y1V-12" value="create_at" style="shape=partialRectangle;connectable=0;fillColor=none;top=0;left=0;bottom=0;right=0;align=left;spacingLeft=6;overflow=hidden;whiteSpace=wrap;html=1;swimlaneFillColor=none;" vertex="1" parent="QP6FGKmBum78utNL4Y1V-10">
          <mxGeometry x="30" width="140" height="30" as="geometry">
            <mxRectangle width="140" height="30" as="alternateBounds" />
          </mxGeometry>
        </mxCell>
        <mxCell id="QP6FGKmBum78utNL4Y1V-55" value="" style="shape=tableRow;horizontal=0;startSize=0;swimlaneHead=0;swimlaneBody=0;fillColor=none;collapsible=0;dropTarget=0;points=[[0,0.5],[1,0.5]];portConstraint=eastwest;top=0;left=0;right=0;bottom=1;swimlaneFillColor=none;" vertex="1" parent="etqEuHp1loXPazJlGjv_-297">
          <mxGeometry y="300" width="170" height="30" as="geometry" />
        </mxCell>
        <mxCell id="QP6FGKmBum78utNL4Y1V-56" value="" style="shape=partialRectangle;connectable=0;fillColor=none;top=1;left=0;bottom=0;right=0;editable=1;overflow=hidden;whiteSpace=wrap;html=1;swimlaneFillColor=none;" vertex="1" parent="QP6FGKmBum78utNL4Y1V-55">
          <mxGeometry width="30" height="30" as="geometry">
            <mxRectangle width="30" height="30" as="alternateBounds" />
          </mxGeometry>
        </mxCell>
        <mxCell id="QP6FGKmBum78utNL4Y1V-57" value="update_at" style="shape=partialRectangle;connectable=0;fillColor=none;top=1;left=0;bottom=0;right=0;align=left;spacingLeft=6;overflow=hidden;whiteSpace=wrap;html=1;swimlaneFillColor=none;" vertex="1" parent="QP6FGKmBum78utNL4Y1V-55">
          <mxGeometry x="30" width="140" height="30" as="geometry">
            <mxRectangle width="140" height="30" as="alternateBounds" />
          </mxGeometry>
        </mxCell>
        <mxCell id="etqEuHp1loXPazJlGjv_-316" value="" style="shape=partialRectangle;connectable=0;fillColor=none;top=0;left=0;bottom=0;right=0;editable=1;overflow=hidden;whiteSpace=wrap;html=1;swimlaneFillColor=none;" parent="etqEuHp1loXPazJlGjv_-296" vertex="1">
          <mxGeometry y="90" width="30" height="30" as="geometry">
            <mxRectangle width="30" height="30" as="alternateBounds" />
          </mxGeometry>
        </mxCell>
        <mxCell id="etqEuHp1loXPazJlGjv_-317" value="int" style="shape=partialRectangle;connectable=0;fillColor=none;top=0;left=1;bottom=0;right=0;editable=1;overflow=hidden;whiteSpace=wrap;html=1;swimlaneFillColor=none;" parent="etqEuHp1loXPazJlGjv_-296" vertex="1">
          <mxGeometry x="110" y="60" width="60" height="30" as="geometry">
            <mxRectangle width="30" height="30" as="alternateBounds" />
          </mxGeometry>
        </mxCell>
        <mxCell id="etqEuHp1loXPazJlGjv_-318" value="string" style="shape=partialRectangle;connectable=0;fillColor=none;top=0;left=1;bottom=0;right=0;editable=1;overflow=hidden;whiteSpace=wrap;html=1;swimlaneFillColor=none;" parent="etqEuHp1loXPazJlGjv_-296" vertex="1">
          <mxGeometry x="110" y="90" width="60" height="30" as="geometry">
            <mxRectangle width="30" height="30" as="alternateBounds" />
          </mxGeometry>
        </mxCell>
        <mxCell id="etqEuHp1loXPazJlGjv_-319" value="datetime" style="shape=partialRectangle;connectable=0;fillColor=none;top=0;left=1;bottom=0;right=0;editable=1;overflow=hidden;whiteSpace=wrap;html=1;swimlaneFillColor=none;" parent="etqEuHp1loXPazJlGjv_-296" vertex="1">
          <mxGeometry x="110" y="120" width="60" height="30" as="geometry">
            <mxRectangle width="30" height="30" as="alternateBounds" />
          </mxGeometry>
        </mxCell>
        <mxCell id="etqEuHp1loXPazJlGjv_-320" value="datetime" style="shape=partialRectangle;connectable=0;fillColor=none;top=0;left=1;bottom=0;right=0;editable=1;overflow=hidden;whiteSpace=wrap;html=1;swimlaneFillColor=none;" parent="etqEuHp1loXPazJlGjv_-296" vertex="1">
          <mxGeometry x="110" y="150" width="60" height="30" as="geometry">
            <mxRectangle width="30" height="30" as="alternateBounds" />
          </mxGeometry>
        </mxCell>
        <mxCell id="etqEuHp1loXPazJlGjv_-321" value="int" style="shape=partialRectangle;connectable=0;fillColor=none;top=0;left=1;bottom=0;right=0;editable=1;overflow=hidden;whiteSpace=wrap;html=1;swimlaneFillColor=none;" parent="etqEuHp1loXPazJlGjv_-296" vertex="1">
          <mxGeometry x="110" y="30" width="60" height="30" as="geometry">
            <mxRectangle width="30" height="30" as="alternateBounds" />
          </mxGeometry>
        </mxCell>
        <mxCell id="etqEuHp1loXPazJlGjv_-322" value="string" style="shape=partialRectangle;connectable=0;fillColor=none;top=0;left=1;bottom=0;right=0;editable=1;overflow=hidden;whiteSpace=wrap;html=1;swimlaneFillColor=none;" parent="etqEuHp1loXPazJlGjv_-296" vertex="1">
          <mxGeometry x="110" y="180" width="60" height="30" as="geometry">
            <mxRectangle width="30" height="30" as="alternateBounds" />
          </mxGeometry>
        </mxCell>
        <mxCell id="QP6FGKmBum78utNL4Y1V-13" value="string" style="shape=partialRectangle;connectable=0;fillColor=none;top=0;left=1;bottom=0;right=0;editable=1;overflow=hidden;whiteSpace=wrap;html=1;swimlaneFillColor=none;" vertex="1" parent="etqEuHp1loXPazJlGjv_-296">
          <mxGeometry x="110" y="240" width="60" height="30" as="geometry">
            <mxRectangle width="30" height="30" as="alternateBounds" />
          </mxGeometry>
        </mxCell>
        <mxCell id="QP6FGKmBum78utNL4Y1V-58" value="datetime" style="shape=partialRectangle;connectable=0;fillColor=none;top=0;left=1;bottom=0;right=0;editable=1;overflow=hidden;whiteSpace=wrap;html=1;swimlaneFillColor=none;" vertex="1" parent="etqEuHp1loXPazJlGjv_-296">
          <mxGeometry x="110" y="300" width="60" height="30" as="geometry">
            <mxRectangle width="30" height="30" as="alternateBounds" />
          </mxGeometry>
        </mxCell>
        <mxCell id="etqEuHp1loXPazJlGjv_-326" value="boolean" style="shape=partialRectangle;connectable=0;fillColor=none;top=0;left=1;bottom=0;right=0;editable=1;overflow=hidden;whiteSpace=wrap;html=1;swimlaneFillColor=none;" parent="etqEuHp1loXPazJlGjv_-327" vertex="1">
          <mxGeometry x="110" y="210" width="60" height="30" as="geometry">
            <mxRectangle width="30" height="30" as="alternateBounds" />
          </mxGeometry>
        </mxCell>
        <mxCell id="etqEuHp1loXPazJlGjv_-434" value="" style="group" parent="1" vertex="1" connectable="0">
          <mxGeometry x="870" y="679.91" width="200" height="360" as="geometry" />
        </mxCell>
        <mxCell id="etqEuHp1loXPazJlGjv_-389" value="" style="group" parent="etqEuHp1loXPazJlGjv_-434" vertex="1" connectable="0">
          <mxGeometry width="200" height="360" as="geometry" />
        </mxCell>
        <mxCell id="etqEuHp1loXPazJlGjv_-390" value="" style="group;strokeColor=default;" parent="etqEuHp1loXPazJlGjv_-389" vertex="1" connectable="0">
          <mxGeometry width="200" height="360" as="geometry" />
        </mxCell>
        <mxCell id="etqEuHp1loXPazJlGjv_-391" value="TRANSACTIONS" style="shape=table;startSize=30;container=1;collapsible=1;childLayout=tableLayout;fixedRows=1;rowLines=0;fontStyle=1;align=center;resizeLast=1;html=1;swimlaneFillColor=none;" parent="etqEuHp1loXPazJlGjv_-390" vertex="1">
          <mxGeometry width="199.99752325048607" height="360" as="geometry" />
        </mxCell>
        <mxCell id="etqEuHp1loXPazJlGjv_-392" value="" style="shape=tableRow;horizontal=0;startSize=0;swimlaneHead=0;swimlaneBody=0;fillColor=none;collapsible=0;dropTarget=0;points=[[0,0.5],[1,0.5]];portConstraint=eastwest;top=0;left=0;right=0;bottom=1;swimlaneFillColor=none;" parent="etqEuHp1loXPazJlGjv_-391" vertex="1">
          <mxGeometry y="30" width="199.99752325048607" height="30" as="geometry" />
        </mxCell>
        <mxCell id="etqEuHp1loXPazJlGjv_-393" value="PK" style="shape=partialRectangle;connectable=0;fillColor=none;top=0;left=0;bottom=0;right=0;fontStyle=1;overflow=hidden;whiteSpace=wrap;html=1;swimlaneFillColor=none;" parent="etqEuHp1loXPazJlGjv_-392" vertex="1">
          <mxGeometry width="30" height="30" as="geometry">
            <mxRectangle width="30" height="30" as="alternateBounds" />
          </mxGeometry>
        </mxCell>
        <mxCell id="etqEuHp1loXPazJlGjv_-394" value="transaction_id" style="shape=partialRectangle;connectable=0;fillColor=none;top=0;left=0;bottom=0;right=0;align=left;spacingLeft=6;fontStyle=1;overflow=hidden;swimlaneFillColor=none;strokeColor=default;whiteSpace=wrap;html=1;fontColor=default;" parent="etqEuHp1loXPazJlGjv_-392" vertex="1">
          <mxGeometry x="30" width="169.99752325048607" height="30" as="geometry">
            <mxRectangle width="169.99752325048607" height="30" as="alternateBounds" />
          </mxGeometry>
        </mxCell>
        <mxCell id="etqEuHp1loXPazJlGjv_-395" value="" style="shape=tableRow;horizontal=0;startSize=0;swimlaneHead=0;swimlaneBody=0;fillColor=none;collapsible=0;dropTarget=0;points=[[0,0.5],[1,0.5]];portConstraint=eastwest;top=0;left=0;right=0;bottom=1;swimlaneFillColor=none;" parent="etqEuHp1loXPazJlGjv_-391" vertex="1">
          <mxGeometry y="60" width="199.99752325048607" height="30" as="geometry" />
        </mxCell>
        <mxCell id="etqEuHp1loXPazJlGjv_-396" value="FK" style="shape=partialRectangle;connectable=0;fillColor=none;top=0;left=0;bottom=0;right=0;editable=1;overflow=hidden;whiteSpace=wrap;html=1;swimlaneFillColor=none;" parent="etqEuHp1loXPazJlGjv_-395" vertex="1">
          <mxGeometry width="30" height="30" as="geometry">
            <mxRectangle width="30" height="30" as="alternateBounds" />
          </mxGeometry>
        </mxCell>
        <mxCell id="etqEuHp1loXPazJlGjv_-397" value="user_id" style="shape=partialRectangle;connectable=0;fillColor=none;top=0;left=0;bottom=0;right=0;align=left;spacingLeft=6;overflow=hidden;whiteSpace=wrap;html=1;swimlaneFillColor=none;" parent="etqEuHp1loXPazJlGjv_-395" vertex="1">
          <mxGeometry x="30" width="169.99752325048607" height="30" as="geometry">
            <mxRectangle width="169.99752325048607" height="30" as="alternateBounds" />
          </mxGeometry>
        </mxCell>
        <mxCell id="etqEuHp1loXPazJlGjv_-398" value="" style="shape=tableRow;horizontal=0;startSize=0;swimlaneHead=0;swimlaneBody=0;fillColor=none;collapsible=0;dropTarget=0;points=[[0,0.5],[1,0.5]];portConstraint=eastwest;top=0;left=0;right=0;bottom=1;swimlaneFillColor=none;" parent="etqEuHp1loXPazJlGjv_-391" vertex="1">
          <mxGeometry y="90" width="199.99752325048607" height="30" as="geometry" />
        </mxCell>
        <mxCell id="etqEuHp1loXPazJlGjv_-399" value="" style="shape=partialRectangle;connectable=0;fillColor=none;top=0;left=0;bottom=0;right=0;editable=1;overflow=hidden;whiteSpace=wrap;html=1;swimlaneFillColor=none;" parent="etqEuHp1loXPazJlGjv_-398" vertex="1">
          <mxGeometry width="30" height="30" as="geometry">
            <mxRectangle width="30" height="30" as="alternateBounds" />
          </mxGeometry>
        </mxCell>
        <mxCell id="etqEuHp1loXPazJlGjv_-400" value="from_currency_id" style="shape=partialRectangle;connectable=0;fillColor=none;top=0;left=0;bottom=0;right=0;align=left;spacingLeft=6;overflow=hidden;whiteSpace=wrap;html=1;swimlaneFillColor=none;" parent="etqEuHp1loXPazJlGjv_-398" vertex="1">
          <mxGeometry x="30" width="169.99752325048607" height="30" as="geometry">
            <mxRectangle width="169.99752325048607" height="30" as="alternateBounds" />
          </mxGeometry>
        </mxCell>
        <mxCell id="etqEuHp1loXPazJlGjv_-401" value="" style="shape=tableRow;horizontal=0;startSize=0;swimlaneHead=0;swimlaneBody=0;fillColor=none;collapsible=0;dropTarget=0;points=[[0,0.5],[1,0.5]];portConstraint=eastwest;top=0;left=0;right=0;bottom=1;swimlaneFillColor=none;" parent="etqEuHp1loXPazJlGjv_-391" vertex="1">
          <mxGeometry y="120" width="199.99752325048607" height="30" as="geometry" />
        </mxCell>
        <mxCell id="etqEuHp1loXPazJlGjv_-402" value="FK" style="shape=partialRectangle;connectable=0;fillColor=none;top=0;left=0;bottom=0;right=0;editable=1;overflow=hidden;whiteSpace=wrap;html=1;swimlaneFillColor=none;" parent="etqEuHp1loXPazJlGjv_-401" vertex="1">
          <mxGeometry width="30" height="30" as="geometry">
            <mxRectangle width="30" height="30" as="alternateBounds" />
          </mxGeometry>
        </mxCell>
        <mxCell id="etqEuHp1loXPazJlGjv_-403" value="to_currency_id" style="shape=partialRectangle;connectable=0;fillColor=none;top=0;left=0;bottom=0;right=0;align=left;spacingLeft=6;overflow=hidden;whiteSpace=wrap;html=1;swimlaneFillColor=none;" parent="etqEuHp1loXPazJlGjv_-401" vertex="1">
          <mxGeometry x="30" width="169.99752325048607" height="30" as="geometry">
            <mxRectangle width="169.99752325048607" height="30" as="alternateBounds" />
          </mxGeometry>
        </mxCell>
        <mxCell id="etqEuHp1loXPazJlGjv_-404" value="" style="shape=tableRow;horizontal=0;startSize=0;swimlaneHead=0;swimlaneBody=0;fillColor=none;collapsible=0;dropTarget=0;points=[[0,0.5],[1,0.5]];portConstraint=eastwest;top=0;left=0;right=0;bottom=1;swimlaneFillColor=none;" parent="etqEuHp1loXPazJlGjv_-391" vertex="1">
          <mxGeometry y="150" width="199.99752325048607" height="30" as="geometry" />
        </mxCell>
        <mxCell id="etqEuHp1loXPazJlGjv_-405" value="" style="shape=partialRectangle;connectable=0;fillColor=none;top=0;left=0;bottom=0;right=0;editable=1;overflow=hidden;whiteSpace=wrap;html=1;swimlaneFillColor=none;" parent="etqEuHp1loXPazJlGjv_-404" vertex="1">
          <mxGeometry width="30" height="30" as="geometry">
            <mxRectangle width="30" height="30" as="alternateBounds" />
          </mxGeometry>
        </mxCell>
        <mxCell id="etqEuHp1loXPazJlGjv_-406" value="&lt;span style=&quot;color: rgb(0, 0, 0); font-family: Helvetica; font-size: 12px; font-style: normal; font-variant-ligatures: normal; font-variant-caps: normal; font-weight: 400; letter-spacing: normal; orphans: 2; text-align: left; text-indent: 0px; text-transform: none; widows: 2; word-spacing: 0px; -webkit-text-stroke-width: 0px; white-space: normal; text-decoration-thickness: initial; text-decoration-style: initial; text-decoration-color: initial; float: none; display: inline !important;&quot;&gt;transaction_type&lt;/span&gt;" style="shape=partialRectangle;connectable=0;fillColor=none;top=0;left=0;bottom=0;right=0;align=left;spacingLeft=6;overflow=hidden;whiteSpace=wrap;html=1;swimlaneFillColor=none;" parent="etqEuHp1loXPazJlGjv_-404" vertex="1">
          <mxGeometry x="30" width="169.99752325048607" height="30" as="geometry">
            <mxRectangle width="169.99752325048607" height="30" as="alternateBounds" />
          </mxGeometry>
        </mxCell>
        <mxCell id="etqEuHp1loXPazJlGjv_-407" value="" style="shape=tableRow;horizontal=0;startSize=0;swimlaneHead=0;swimlaneBody=0;fillColor=none;collapsible=0;dropTarget=0;points=[[0,0.5],[1,0.5]];portConstraint=eastwest;top=0;left=0;right=0;bottom=0;swimlaneFillColor=none;" parent="etqEuHp1loXPazJlGjv_-391" vertex="1">
          <mxGeometry y="180" width="199.99752325048607" height="30" as="geometry" />
        </mxCell>
        <mxCell id="etqEuHp1loXPazJlGjv_-408" value="" style="shape=partialRectangle;connectable=0;fillColor=none;top=0;left=0;bottom=0;right=0;editable=1;overflow=hidden;whiteSpace=wrap;html=1;swimlaneFillColor=none;" parent="etqEuHp1loXPazJlGjv_-407" vertex="1">
          <mxGeometry width="30" height="30" as="geometry">
            <mxRectangle width="30" height="30" as="alternateBounds" />
          </mxGeometry>
        </mxCell>
        <mxCell id="etqEuHp1loXPazJlGjv_-409" value="from_amount" style="shape=partialRectangle;connectable=0;fillColor=none;top=0;left=0;bottom=0;right=0;align=left;spacingLeft=6;overflow=hidden;whiteSpace=wrap;html=1;swimlaneFillColor=none;" parent="etqEuHp1loXPazJlGjv_-407" vertex="1">
          <mxGeometry x="30" width="169.99752325048607" height="30" as="geometry">
            <mxRectangle width="169.99752325048607" height="30" as="alternateBounds" />
          </mxGeometry>
        </mxCell>
        <mxCell id="etqEuHp1loXPazJlGjv_-410" value="" style="shape=tableRow;horizontal=0;startSize=0;swimlaneHead=0;swimlaneBody=0;fillColor=none;collapsible=0;dropTarget=0;points=[[0,0.5],[1,0.5]];portConstraint=eastwest;top=0;left=0;right=0;bottom=0;swimlaneFillColor=none;" parent="etqEuHp1loXPazJlGjv_-391" vertex="1">
          <mxGeometry y="210" width="199.99752325048607" height="30" as="geometry" />
        </mxCell>
        <mxCell id="etqEuHp1loXPazJlGjv_-411" value="" style="shape=partialRectangle;connectable=0;fillColor=none;top=1;left=1;bottom=1;right=0;editable=1;overflow=hidden;whiteSpace=wrap;html=1;swimlaneFillColor=none;" parent="etqEuHp1loXPazJlGjv_-410" vertex="1">
          <mxGeometry width="30" height="30" as="geometry">
            <mxRectangle width="30" height="30" as="alternateBounds" />
          </mxGeometry>
        </mxCell>
        <mxCell id="etqEuHp1loXPazJlGjv_-412" value="to_amount" style="shape=partialRectangle;connectable=0;fillColor=none;top=1;left=1;bottom=1;right=0;align=left;spacingLeft=6;overflow=hidden;whiteSpace=wrap;html=1;swimlaneFillColor=none;" parent="etqEuHp1loXPazJlGjv_-410" vertex="1">
          <mxGeometry x="30" width="169.99752325048607" height="30" as="geometry">
            <mxRectangle width="169.99752325048607" height="30" as="alternateBounds" />
          </mxGeometry>
        </mxCell>
        <mxCell id="etqEuHp1loXPazJlGjv_-413" value="" style="shape=tableRow;horizontal=0;startSize=0;swimlaneHead=0;swimlaneBody=0;fillColor=none;collapsible=0;dropTarget=0;points=[[0,0.5],[1,0.5]];portConstraint=eastwest;top=0;left=0;right=0;bottom=0;swimlaneFillColor=none;" parent="etqEuHp1loXPazJlGjv_-391" vertex="1">
          <mxGeometry y="240" width="199.99752325048607" height="30" as="geometry" />
        </mxCell>
        <mxCell id="etqEuHp1loXPazJlGjv_-414" value="" style="shape=partialRectangle;connectable=0;fillColor=none;top=0;left=0;bottom=0;right=0;editable=1;overflow=hidden;whiteSpace=wrap;html=1;swimlaneFillColor=none;" parent="etqEuHp1loXPazJlGjv_-413" vertex="1">
          <mxGeometry width="30" height="30" as="geometry">
            <mxRectangle width="30" height="30" as="alternateBounds" />
          </mxGeometry>
        </mxCell>
        <mxCell id="etqEuHp1loXPazJlGjv_-415" value="exchange_rate" style="shape=partialRectangle;connectable=0;fillColor=none;top=0;left=0;bottom=1;right=0;align=left;spacingLeft=6;overflow=hidden;whiteSpace=wrap;html=1;swimlaneFillColor=none;" parent="etqEuHp1loXPazJlGjv_-413" vertex="1">
          <mxGeometry x="30" width="169.99752325048607" height="30" as="geometry">
            <mxRectangle width="169.99752325048607" height="30" as="alternateBounds" />
          </mxGeometry>
        </mxCell>
        <mxCell id="etqEuHp1loXPazJlGjv_-425" value="" style="shape=tableRow;horizontal=0;startSize=0;swimlaneHead=0;swimlaneBody=0;fillColor=none;collapsible=0;dropTarget=0;points=[[0,0.5],[1,0.5]];portConstraint=eastwest;top=0;left=0;right=0;bottom=0;swimlaneFillColor=none;" parent="etqEuHp1loXPazJlGjv_-391" vertex="1">
          <mxGeometry y="270" width="199.99752325048607" height="30" as="geometry" />
        </mxCell>
        <mxCell id="etqEuHp1loXPazJlGjv_-426" value="" style="shape=partialRectangle;connectable=0;fillColor=none;top=1;left=0;bottom=0;right=0;editable=1;overflow=hidden;whiteSpace=wrap;html=1;swimlaneFillColor=none;" parent="etqEuHp1loXPazJlGjv_-425" vertex="1">
          <mxGeometry width="30" height="30" as="geometry">
            <mxRectangle width="30" height="30" as="alternateBounds" />
          </mxGeometry>
        </mxCell>
        <mxCell id="etqEuHp1loXPazJlGjv_-427" value="status" style="shape=partialRectangle;connectable=0;fillColor=none;top=0;left=0;bottom=0;right=0;align=left;spacingLeft=6;overflow=hidden;whiteSpace=wrap;html=1;swimlaneFillColor=none;" parent="etqEuHp1loXPazJlGjv_-425" vertex="1">
          <mxGeometry x="30" width="169.99752325048607" height="30" as="geometry">
            <mxRectangle width="169.99752325048607" height="30" as="alternateBounds" />
          </mxGeometry>
        </mxCell>
        <mxCell id="etqEuHp1loXPazJlGjv_-429" value="" style="shape=tableRow;horizontal=0;startSize=0;swimlaneHead=0;swimlaneBody=0;fillColor=none;collapsible=0;dropTarget=0;points=[[0,0.5],[1,0.5]];portConstraint=eastwest;top=0;left=0;right=0;bottom=0;swimlaneFillColor=none;" parent="etqEuHp1loXPazJlGjv_-391" vertex="1">
          <mxGeometry y="300" width="199.99752325048607" height="30" as="geometry" />
        </mxCell>
        <mxCell id="etqEuHp1loXPazJlGjv_-430" value="" style="shape=partialRectangle;connectable=0;fillColor=none;top=1;left=0;bottom=0;right=0;editable=1;overflow=hidden;whiteSpace=wrap;html=1;swimlaneFillColor=none;" parent="etqEuHp1loXPazJlGjv_-429" vertex="1">
          <mxGeometry width="30" height="30" as="geometry">
            <mxRectangle width="30" height="30" as="alternateBounds" />
          </mxGeometry>
        </mxCell>
        <mxCell id="etqEuHp1loXPazJlGjv_-431" value="create_at" style="shape=partialRectangle;connectable=0;fillColor=none;top=1;left=0;bottom=0;right=0;align=left;spacingLeft=6;overflow=hidden;whiteSpace=wrap;html=1;swimlaneFillColor=none;" parent="etqEuHp1loXPazJlGjv_-429" vertex="1">
          <mxGeometry x="30" width="169.99752325048607" height="30" as="geometry">
            <mxRectangle width="169.99752325048607" height="30" as="alternateBounds" />
          </mxGeometry>
        </mxCell>
        <mxCell id="QP6FGKmBum78utNL4Y1V-61" value="" style="shape=tableRow;horizontal=0;startSize=0;swimlaneHead=0;swimlaneBody=0;fillColor=none;collapsible=0;dropTarget=0;points=[[0,0.5],[1,0.5]];portConstraint=eastwest;top=0;left=0;right=0;bottom=0;swimlaneFillColor=none;" vertex="1" parent="etqEuHp1loXPazJlGjv_-391">
          <mxGeometry y="330" width="199.99752325048607" height="30" as="geometry" />
        </mxCell>
        <mxCell id="QP6FGKmBum78utNL4Y1V-62" value="" style="shape=partialRectangle;connectable=0;fillColor=none;top=1;left=0;bottom=0;right=0;editable=1;overflow=hidden;whiteSpace=wrap;html=1;swimlaneFillColor=none;" vertex="1" parent="QP6FGKmBum78utNL4Y1V-61">
          <mxGeometry width="30" height="30" as="geometry">
            <mxRectangle width="30" height="30" as="alternateBounds" />
          </mxGeometry>
        </mxCell>
        <mxCell id="QP6FGKmBum78utNL4Y1V-63" value="update_at" style="shape=partialRectangle;connectable=0;fillColor=none;top=1;left=0;bottom=0;right=0;align=left;spacingLeft=6;overflow=hidden;whiteSpace=wrap;html=1;swimlaneFillColor=none;" vertex="1" parent="QP6FGKmBum78utNL4Y1V-61">
          <mxGeometry x="30" width="169.99752325048607" height="30" as="geometry">
            <mxRectangle width="169.99752325048607" height="30" as="alternateBounds" />
          </mxGeometry>
        </mxCell>
        <mxCell id="etqEuHp1loXPazJlGjv_-416" value="FK" style="shape=partialRectangle;connectable=0;fillColor=none;top=0;left=0;bottom=0;right=0;editable=1;overflow=hidden;whiteSpace=wrap;html=1;swimlaneFillColor=none;" parent="etqEuHp1loXPazJlGjv_-390" vertex="1">
          <mxGeometry y="90" width="35.29368057361519" height="30" as="geometry">
            <mxRectangle width="30" height="30" as="alternateBounds" />
          </mxGeometry>
        </mxCell>
        <mxCell id="etqEuHp1loXPazJlGjv_-417" value="int" style="shape=partialRectangle;connectable=0;fillColor=none;top=0;left=1;bottom=0;right=0;editable=1;overflow=hidden;whiteSpace=wrap;html=1;swimlaneFillColor=none;" parent="etqEuHp1loXPazJlGjv_-390" vertex="1">
          <mxGeometry x="141.17472229446076" y="60" width="58.82280095602531" height="30" as="geometry">
            <mxRectangle width="30" height="30" as="alternateBounds" />
          </mxGeometry>
        </mxCell>
        <mxCell id="etqEuHp1loXPazJlGjv_-418" value="int" style="shape=partialRectangle;connectable=0;fillColor=none;top=0;left=1;bottom=0;right=0;editable=1;overflow=hidden;whiteSpace=wrap;html=1;swimlaneFillColor=none;" parent="etqEuHp1loXPazJlGjv_-390" vertex="1">
          <mxGeometry x="141.17472229446076" y="90" width="58.82280095602531" height="30" as="geometry">
            <mxRectangle width="30" height="30" as="alternateBounds" />
          </mxGeometry>
        </mxCell>
        <mxCell id="etqEuHp1loXPazJlGjv_-419" value="int" style="shape=partialRectangle;connectable=0;fillColor=none;top=0;left=1;bottom=0;right=0;editable=1;overflow=hidden;whiteSpace=wrap;html=1;swimlaneFillColor=none;" parent="etqEuHp1loXPazJlGjv_-390" vertex="1">
          <mxGeometry x="141.17472229446076" y="120" width="58.82280095602531" height="30" as="geometry">
            <mxRectangle width="30" height="30" as="alternateBounds" />
          </mxGeometry>
        </mxCell>
        <mxCell id="etqEuHp1loXPazJlGjv_-420" value="string" style="shape=partialRectangle;connectable=0;fillColor=none;top=0;left=1;bottom=0;right=0;editable=1;overflow=hidden;whiteSpace=wrap;html=1;swimlaneFillColor=none;" parent="etqEuHp1loXPazJlGjv_-390" vertex="1">
          <mxGeometry x="141.17472229446076" y="150" width="58.82280095602531" height="30" as="geometry">
            <mxRectangle width="30" height="30" as="alternateBounds" />
          </mxGeometry>
        </mxCell>
        <mxCell id="etqEuHp1loXPazJlGjv_-421" value="int" style="shape=partialRectangle;connectable=0;fillColor=none;top=0;left=1;bottom=0;right=0;editable=1;overflow=hidden;whiteSpace=wrap;html=1;swimlaneFillColor=none;" parent="etqEuHp1loXPazJlGjv_-390" vertex="1">
          <mxGeometry x="141.17472229446076" y="30" width="58.82280095602531" height="30" as="geometry">
            <mxRectangle width="30" height="30" as="alternateBounds" />
          </mxGeometry>
        </mxCell>
        <mxCell id="etqEuHp1loXPazJlGjv_-422" value="decimal" style="shape=partialRectangle;connectable=0;fillColor=none;top=0;left=1;bottom=0;right=0;editable=1;overflow=hidden;whiteSpace=wrap;html=1;swimlaneFillColor=none;" parent="etqEuHp1loXPazJlGjv_-390" vertex="1">
          <mxGeometry x="141.17472229446076" y="180" width="58.82280095602531" height="30" as="geometry">
            <mxRectangle width="30" height="30" as="alternateBounds" />
          </mxGeometry>
        </mxCell>
        <mxCell id="etqEuHp1loXPazJlGjv_-423" value="decimal" style="shape=partialRectangle;connectable=0;fillColor=none;top=0;left=1;bottom=0;right=0;editable=1;overflow=hidden;whiteSpace=wrap;html=1;swimlaneFillColor=none;" parent="etqEuHp1loXPazJlGjv_-390" vertex="1">
          <mxGeometry x="141.17472229446076" y="240" width="58.82280095602531" height="30" as="geometry">
            <mxRectangle width="30" height="30" as="alternateBounds" />
          </mxGeometry>
        </mxCell>
        <mxCell id="etqEuHp1loXPazJlGjv_-432" value="datetime" style="shape=partialRectangle;connectable=0;fillColor=none;top=0;left=1;bottom=0;right=0;editable=1;overflow=hidden;whiteSpace=wrap;html=1;swimlaneFillColor=none;" parent="etqEuHp1loXPazJlGjv_-390" vertex="1">
          <mxGeometry x="141.17472229446076" y="300" width="58.82280095602531" height="30" as="geometry">
            <mxRectangle width="30" height="30" as="alternateBounds" />
          </mxGeometry>
        </mxCell>
        <mxCell id="QP6FGKmBum78utNL4Y1V-64" value="datetime" style="shape=partialRectangle;connectable=0;fillColor=none;top=0;left=1;bottom=0;right=0;editable=1;overflow=hidden;whiteSpace=wrap;html=1;swimlaneFillColor=none;" vertex="1" parent="etqEuHp1loXPazJlGjv_-390">
          <mxGeometry x="141.1771990439747" y="330" width="58.82280095602531" height="30" as="geometry">
            <mxRectangle width="30" height="30" as="alternateBounds" />
          </mxGeometry>
        </mxCell>
        <mxCell id="etqEuHp1loXPazJlGjv_-424" value="decimal" style="shape=partialRectangle;connectable=0;fillColor=none;top=0;left=1;bottom=0;right=0;editable=1;overflow=hidden;whiteSpace=wrap;html=1;swimlaneFillColor=none;" parent="etqEuHp1loXPazJlGjv_-389" vertex="1">
          <mxGeometry x="141.17472229446076" y="210" width="58.82280095602531" height="30" as="geometry">
            <mxRectangle width="30" height="30" as="alternateBounds" />
          </mxGeometry>
        </mxCell>
        <mxCell id="etqEuHp1loXPazJlGjv_-428" value="string" style="shape=partialRectangle;connectable=0;fillColor=none;top=0;left=1;bottom=0;right=0;editable=1;overflow=hidden;whiteSpace=wrap;html=1;swimlaneFillColor=none;" parent="etqEuHp1loXPazJlGjv_-434" vertex="1">
          <mxGeometry x="141.17472229446076" y="270" width="58.82280095602531" height="30" as="geometry">
            <mxRectangle width="30" height="30" as="alternateBounds" />
          </mxGeometry>
        </mxCell>
        <mxCell id="etqEuHp1loXPazJlGjv_-435" value="" style="group" parent="1" vertex="1" connectable="0">
          <mxGeometry x="1425" y="249.90999999999997" width="180" height="240" as="geometry" />
        </mxCell>
        <mxCell id="etqEuHp1loXPazJlGjv_-436" value="" style="group;strokeColor=default;" parent="etqEuHp1loXPazJlGjv_-435" vertex="1" connectable="0">
          <mxGeometry width="180" height="240" as="geometry" />
        </mxCell>
        <mxCell id="etqEuHp1loXPazJlGjv_-437" value="CURRENCIES" style="shape=table;startSize=30;container=1;collapsible=1;childLayout=tableLayout;fixedRows=1;rowLines=0;fontStyle=1;align=center;resizeLast=1;html=1;swimlaneFillColor=none;" parent="etqEuHp1loXPazJlGjv_-436" vertex="1">
          <mxGeometry width="180" height="270" as="geometry" />
        </mxCell>
        <mxCell id="etqEuHp1loXPazJlGjv_-438" value="" style="shape=tableRow;horizontal=0;startSize=0;swimlaneHead=0;swimlaneBody=0;fillColor=none;collapsible=0;dropTarget=0;points=[[0,0.5],[1,0.5]];portConstraint=eastwest;top=0;left=0;right=0;bottom=1;swimlaneFillColor=none;" parent="etqEuHp1loXPazJlGjv_-437" vertex="1">
          <mxGeometry y="30" width="180" height="30" as="geometry" />
        </mxCell>
        <mxCell id="etqEuHp1loXPazJlGjv_-439" value="PK" style="shape=partialRectangle;connectable=0;fillColor=none;top=0;left=0;bottom=0;right=0;fontStyle=1;overflow=hidden;whiteSpace=wrap;html=1;swimlaneFillColor=none;" parent="etqEuHp1loXPazJlGjv_-438" vertex="1">
          <mxGeometry width="30" height="30" as="geometry">
            <mxRectangle width="30" height="30" as="alternateBounds" />
          </mxGeometry>
        </mxCell>
        <mxCell id="etqEuHp1loXPazJlGjv_-440" value="currency_id" style="shape=partialRectangle;connectable=0;fillColor=none;top=0;left=0;bottom=0;right=0;align=left;spacingLeft=6;fontStyle=1;overflow=hidden;swimlaneFillColor=none;strokeColor=default;whiteSpace=wrap;html=1;fontColor=default;" parent="etqEuHp1loXPazJlGjv_-438" vertex="1">
          <mxGeometry x="30" width="150" height="30" as="geometry">
            <mxRectangle width="150" height="30" as="alternateBounds" />
          </mxGeometry>
        </mxCell>
        <mxCell id="etqEuHp1loXPazJlGjv_-441" value="" style="shape=tableRow;horizontal=0;startSize=0;swimlaneHead=0;swimlaneBody=0;fillColor=none;collapsible=0;dropTarget=0;points=[[0,0.5],[1,0.5]];portConstraint=eastwest;top=0;left=0;right=0;bottom=1;swimlaneFillColor=none;" parent="etqEuHp1loXPazJlGjv_-437" vertex="1">
          <mxGeometry y="60" width="180" height="30" as="geometry" />
        </mxCell>
        <mxCell id="etqEuHp1loXPazJlGjv_-442" value="UK" style="shape=partialRectangle;connectable=0;fillColor=none;top=0;left=0;bottom=0;right=0;editable=1;overflow=hidden;whiteSpace=wrap;html=1;swimlaneFillColor=none;" parent="etqEuHp1loXPazJlGjv_-441" vertex="1">
          <mxGeometry width="30" height="30" as="geometry">
            <mxRectangle width="30" height="30" as="alternateBounds" />
          </mxGeometry>
        </mxCell>
        <mxCell id="etqEuHp1loXPazJlGjv_-443" value="code" style="shape=partialRectangle;connectable=0;fillColor=none;top=0;left=0;bottom=0;right=0;align=left;spacingLeft=6;overflow=hidden;whiteSpace=wrap;html=1;swimlaneFillColor=none;" parent="etqEuHp1loXPazJlGjv_-441" vertex="1">
          <mxGeometry x="30" width="150" height="30" as="geometry">
            <mxRectangle width="150" height="30" as="alternateBounds" />
          </mxGeometry>
        </mxCell>
        <mxCell id="etqEuHp1loXPazJlGjv_-444" value="" style="shape=tableRow;horizontal=0;startSize=0;swimlaneHead=0;swimlaneBody=0;fillColor=none;collapsible=0;dropTarget=0;points=[[0,0.5],[1,0.5]];portConstraint=eastwest;top=0;left=0;right=0;bottom=1;swimlaneFillColor=none;" parent="etqEuHp1loXPazJlGjv_-437" vertex="1">
          <mxGeometry y="90" width="180" height="30" as="geometry" />
        </mxCell>
        <mxCell id="etqEuHp1loXPazJlGjv_-445" value="" style="shape=partialRectangle;connectable=0;fillColor=none;top=0;left=0;bottom=0;right=0;editable=1;overflow=hidden;whiteSpace=wrap;html=1;swimlaneFillColor=none;" parent="etqEuHp1loXPazJlGjv_-444" vertex="1">
          <mxGeometry width="30" height="30" as="geometry">
            <mxRectangle width="30" height="30" as="alternateBounds" />
          </mxGeometry>
        </mxCell>
        <mxCell id="etqEuHp1loXPazJlGjv_-446" value="name" style="shape=partialRectangle;connectable=0;fillColor=none;top=0;left=0;bottom=0;right=0;align=left;spacingLeft=6;overflow=hidden;whiteSpace=wrap;html=1;swimlaneFillColor=none;" parent="etqEuHp1loXPazJlGjv_-444" vertex="1">
          <mxGeometry x="30" width="150" height="30" as="geometry">
            <mxRectangle width="150" height="30" as="alternateBounds" />
          </mxGeometry>
        </mxCell>
        <mxCell id="etqEuHp1loXPazJlGjv_-624" value="" style="shape=tableRow;horizontal=0;startSize=0;swimlaneHead=0;swimlaneBody=0;fillColor=none;collapsible=0;dropTarget=0;points=[[0,0.5],[1,0.5]];portConstraint=eastwest;top=0;left=0;right=0;bottom=1;swimlaneFillColor=none;" parent="etqEuHp1loXPazJlGjv_-437" vertex="1">
          <mxGeometry y="120" width="180" height="30" as="geometry" />
        </mxCell>
        <mxCell id="etqEuHp1loXPazJlGjv_-625" value="" style="shape=partialRectangle;connectable=0;fillColor=none;top=0;left=0;bottom=0;right=0;editable=1;overflow=hidden;whiteSpace=wrap;html=1;swimlaneFillColor=none;" parent="etqEuHp1loXPazJlGjv_-624" vertex="1">
          <mxGeometry width="30" height="30" as="geometry">
            <mxRectangle width="30" height="30" as="alternateBounds" />
          </mxGeometry>
        </mxCell>
        <mxCell id="etqEuHp1loXPazJlGjv_-626" value="type" style="shape=partialRectangle;connectable=0;fillColor=none;top=0;left=0;bottom=0;right=0;align=left;spacingLeft=6;overflow=hidden;whiteSpace=wrap;html=1;swimlaneFillColor=none;" parent="etqEuHp1loXPazJlGjv_-624" vertex="1">
          <mxGeometry x="30" width="150" height="30" as="geometry">
            <mxRectangle width="150" height="30" as="alternateBounds" />
          </mxGeometry>
        </mxCell>
        <mxCell id="etqEuHp1loXPazJlGjv_-447" value="" style="shape=tableRow;horizontal=0;startSize=0;swimlaneHead=0;swimlaneBody=0;fillColor=none;collapsible=0;dropTarget=0;points=[[0,0.5],[1,0.5]];portConstraint=eastwest;top=0;left=0;right=0;bottom=1;swimlaneFillColor=none;" parent="etqEuHp1loXPazJlGjv_-437" vertex="1">
          <mxGeometry y="150" width="180" height="30" as="geometry" />
        </mxCell>
        <mxCell id="etqEuHp1loXPazJlGjv_-448" value="" style="shape=partialRectangle;connectable=0;fillColor=none;top=0;left=0;bottom=0;right=0;editable=1;overflow=hidden;whiteSpace=wrap;html=1;swimlaneFillColor=none;" parent="etqEuHp1loXPazJlGjv_-447" vertex="1">
          <mxGeometry width="30" height="30" as="geometry">
            <mxRectangle width="30" height="30" as="alternateBounds" />
          </mxGeometry>
        </mxCell>
        <mxCell id="etqEuHp1loXPazJlGjv_-449" value="symbol" style="shape=partialRectangle;connectable=0;fillColor=none;top=0;left=0;bottom=0;right=0;align=left;spacingLeft=6;overflow=hidden;whiteSpace=wrap;html=1;swimlaneFillColor=none;" parent="etqEuHp1loXPazJlGjv_-447" vertex="1">
          <mxGeometry x="30" width="150" height="30" as="geometry">
            <mxRectangle width="150" height="30" as="alternateBounds" />
          </mxGeometry>
        </mxCell>
        <mxCell id="etqEuHp1loXPazJlGjv_-450" value="" style="shape=tableRow;horizontal=0;startSize=0;swimlaneHead=0;swimlaneBody=0;fillColor=none;collapsible=0;dropTarget=0;points=[[0,0.5],[1,0.5]];portConstraint=eastwest;top=0;left=0;right=0;bottom=1;swimlaneFillColor=none;" parent="etqEuHp1loXPazJlGjv_-437" vertex="1">
          <mxGeometry y="180" width="180" height="30" as="geometry" />
        </mxCell>
        <mxCell id="etqEuHp1loXPazJlGjv_-451" value="" style="shape=partialRectangle;connectable=0;fillColor=none;top=0;left=0;bottom=0;right=0;editable=1;overflow=hidden;whiteSpace=wrap;html=1;swimlaneFillColor=none;" parent="etqEuHp1loXPazJlGjv_-450" vertex="1">
          <mxGeometry width="30" height="30" as="geometry">
            <mxRectangle width="30" height="30" as="alternateBounds" />
          </mxGeometry>
        </mxCell>
        <mxCell id="etqEuHp1loXPazJlGjv_-452" value="is_active" style="shape=partialRectangle;connectable=0;fillColor=none;top=0;left=0;bottom=0;right=0;align=left;spacingLeft=6;overflow=hidden;whiteSpace=wrap;html=1;swimlaneFillColor=none;" parent="etqEuHp1loXPazJlGjv_-450" vertex="1">
          <mxGeometry x="30" width="150" height="30" as="geometry">
            <mxRectangle width="150" height="30" as="alternateBounds" />
          </mxGeometry>
        </mxCell>
        <mxCell id="etqEuHp1loXPazJlGjv_-456" value="" style="shape=tableRow;horizontal=0;startSize=0;swimlaneHead=0;swimlaneBody=0;fillColor=none;collapsible=0;dropTarget=0;points=[[0,0.5],[1,0.5]];portConstraint=eastwest;top=0;left=0;right=0;bottom=0;swimlaneFillColor=none;" parent="etqEuHp1loXPazJlGjv_-437" vertex="1">
          <mxGeometry y="210" width="180" height="30" as="geometry" />
        </mxCell>
        <mxCell id="etqEuHp1loXPazJlGjv_-457" value="" style="shape=partialRectangle;connectable=0;fillColor=none;top=0;left=0;bottom=0;right=0;editable=1;overflow=hidden;whiteSpace=wrap;html=1;swimlaneFillColor=none;" parent="etqEuHp1loXPazJlGjv_-456" vertex="1">
          <mxGeometry width="30" height="30" as="geometry">
            <mxRectangle width="30" height="30" as="alternateBounds" />
          </mxGeometry>
        </mxCell>
        <mxCell id="etqEuHp1loXPazJlGjv_-458" value="create_at" style="shape=partialRectangle;connectable=0;fillColor=none;top=0;left=0;bottom=0;right=0;align=left;spacingLeft=6;overflow=hidden;whiteSpace=wrap;html=1;swimlaneFillColor=none;" parent="etqEuHp1loXPazJlGjv_-456" vertex="1">
          <mxGeometry x="30" width="150" height="30" as="geometry">
            <mxRectangle width="150" height="30" as="alternateBounds" />
          </mxGeometry>
        </mxCell>
        <mxCell id="QP6FGKmBum78utNL4Y1V-66" value="" style="shape=tableRow;horizontal=0;startSize=0;swimlaneHead=0;swimlaneBody=0;fillColor=none;collapsible=0;dropTarget=0;points=[[0,0.5],[1,0.5]];portConstraint=eastwest;top=0;left=0;right=0;bottom=0;swimlaneFillColor=none;" vertex="1" parent="etqEuHp1loXPazJlGjv_-437">
          <mxGeometry y="240" width="180" height="30" as="geometry" />
        </mxCell>
        <mxCell id="QP6FGKmBum78utNL4Y1V-67" value="" style="shape=partialRectangle;connectable=0;fillColor=none;top=0;left=0;bottom=0;right=0;editable=1;overflow=hidden;whiteSpace=wrap;html=1;swimlaneFillColor=none;" vertex="1" parent="QP6FGKmBum78utNL4Y1V-66">
          <mxGeometry width="30" height="30" as="geometry">
            <mxRectangle width="30" height="30" as="alternateBounds" />
          </mxGeometry>
        </mxCell>
        <mxCell id="QP6FGKmBum78utNL4Y1V-68" value="update_at" style="shape=partialRectangle;connectable=0;fillColor=none;top=0;left=0;bottom=0;right=0;align=left;spacingLeft=6;overflow=hidden;whiteSpace=wrap;html=1;swimlaneFillColor=none;" vertex="1" parent="QP6FGKmBum78utNL4Y1V-66">
          <mxGeometry x="30" width="150" height="30" as="geometry">
            <mxRectangle width="150" height="30" as="alternateBounds" />
          </mxGeometry>
        </mxCell>
        <mxCell id="etqEuHp1loXPazJlGjv_-459" value="" style="shape=partialRectangle;connectable=0;fillColor=none;top=0;left=0;bottom=0;right=0;editable=1;overflow=hidden;whiteSpace=wrap;html=1;swimlaneFillColor=none;" parent="etqEuHp1loXPazJlGjv_-436" vertex="1">
          <mxGeometry y="90" width="31.764705882352942" height="30" as="geometry">
            <mxRectangle width="30" height="30" as="alternateBounds" />
          </mxGeometry>
        </mxCell>
        <mxCell id="etqEuHp1loXPazJlGjv_-460" value="string" style="shape=partialRectangle;connectable=0;fillColor=none;top=0;left=1;bottom=0;right=0;editable=1;overflow=hidden;whiteSpace=wrap;html=1;swimlaneFillColor=none;" parent="etqEuHp1loXPazJlGjv_-436" vertex="1">
          <mxGeometry x="116.47058823529412" y="60" width="63.529411764705884" height="30" as="geometry">
            <mxRectangle width="30" height="30" as="alternateBounds" />
          </mxGeometry>
        </mxCell>
        <mxCell id="etqEuHp1loXPazJlGjv_-461" value="string" style="shape=partialRectangle;connectable=0;fillColor=none;top=0;left=1;bottom=0;right=0;editable=1;overflow=hidden;whiteSpace=wrap;html=1;swimlaneFillColor=none;" parent="etqEuHp1loXPazJlGjv_-436" vertex="1">
          <mxGeometry x="116.47058823529412" y="90" width="63.529411764705884" height="30" as="geometry">
            <mxRectangle width="30" height="30" as="alternateBounds" />
          </mxGeometry>
        </mxCell>
        <mxCell id="etqEuHp1loXPazJlGjv_-462" value="string" style="shape=partialRectangle;connectable=0;fillColor=none;top=0;left=1;bottom=0;right=0;editable=1;overflow=hidden;whiteSpace=wrap;html=1;swimlaneFillColor=none;" parent="etqEuHp1loXPazJlGjv_-436" vertex="1">
          <mxGeometry x="116.47058823529412" y="120" width="63.529411764705884" height="30" as="geometry">
            <mxRectangle width="30" height="30" as="alternateBounds" />
          </mxGeometry>
        </mxCell>
        <mxCell id="etqEuHp1loXPazJlGjv_-463" value="string" style="shape=partialRectangle;connectable=0;fillColor=none;top=0;left=1;bottom=0;right=0;editable=1;overflow=hidden;whiteSpace=wrap;html=1;swimlaneFillColor=none;" parent="etqEuHp1loXPazJlGjv_-436" vertex="1">
          <mxGeometry x="116.47058823529412" y="150" width="63.529411764705884" height="30" as="geometry">
            <mxRectangle width="30" height="30" as="alternateBounds" />
          </mxGeometry>
        </mxCell>
        <mxCell id="etqEuHp1loXPazJlGjv_-464" value="int" style="shape=partialRectangle;connectable=0;fillColor=none;top=0;left=1;bottom=0;right=0;editable=1;overflow=hidden;whiteSpace=wrap;html=1;swimlaneFillColor=none;" parent="etqEuHp1loXPazJlGjv_-436" vertex="1">
          <mxGeometry x="116.47058823529412" y="30" width="63.529411764705884" height="30" as="geometry">
            <mxRectangle width="30" height="30" as="alternateBounds" />
          </mxGeometry>
        </mxCell>
        <mxCell id="etqEuHp1loXPazJlGjv_-467" value="boolean" style="shape=partialRectangle;connectable=0;fillColor=none;top=0;left=1;bottom=0;right=0;editable=1;overflow=hidden;whiteSpace=wrap;html=1;swimlaneFillColor=none;" parent="etqEuHp1loXPazJlGjv_-436" vertex="1">
          <mxGeometry x="116.47058823529412" y="180" width="63.529411764705884" height="30" as="geometry">
            <mxRectangle width="30" height="30" as="alternateBounds" />
          </mxGeometry>
        </mxCell>
        <mxCell id="QP6FGKmBum78utNL4Y1V-4" value="datetime" style="shape=partialRectangle;connectable=0;fillColor=none;top=0;left=1;bottom=0;right=0;editable=1;overflow=hidden;whiteSpace=wrap;html=1;swimlaneFillColor=none;" vertex="1" parent="etqEuHp1loXPazJlGjv_-436">
          <mxGeometry x="116.47000000000003" y="210" width="63.529411764705884" height="30" as="geometry">
            <mxRectangle width="30" height="30" as="alternateBounds" />
          </mxGeometry>
        </mxCell>
        <mxCell id="etqEuHp1loXPazJlGjv_-504" value="" style="group" parent="1" vertex="1" connectable="0">
          <mxGeometry x="1410" y="659.91" width="210" height="240" as="geometry" />
        </mxCell>
        <mxCell id="etqEuHp1loXPazJlGjv_-505" value="" style="group;strokeColor=default;" parent="etqEuHp1loXPazJlGjv_-504" vertex="1" connectable="0">
          <mxGeometry width="210" height="210" as="geometry" />
        </mxCell>
        <mxCell id="etqEuHp1loXPazJlGjv_-506" value="EXCHANGE_RATES" style="shape=table;startSize=30;container=1;collapsible=1;childLayout=tableLayout;fixedRows=1;rowLines=0;fontStyle=1;align=center;resizeLast=1;html=1;swimlaneFillColor=none;" parent="etqEuHp1loXPazJlGjv_-505" vertex="1">
          <mxGeometry width="210" height="240.00000000000023" as="geometry" />
        </mxCell>
        <mxCell id="etqEuHp1loXPazJlGjv_-507" value="" style="shape=tableRow;horizontal=0;startSize=0;swimlaneHead=0;swimlaneBody=0;fillColor=none;collapsible=0;dropTarget=0;points=[[0,0.5],[1,0.5]];portConstraint=eastwest;top=0;left=0;right=0;bottom=1;swimlaneFillColor=none;" parent="etqEuHp1loXPazJlGjv_-506" vertex="1">
          <mxGeometry y="30" width="210" height="30" as="geometry" />
        </mxCell>
        <mxCell id="etqEuHp1loXPazJlGjv_-508" value="PK" style="shape=partialRectangle;connectable=0;fillColor=none;top=0;left=0;bottom=0;right=0;fontStyle=1;overflow=hidden;whiteSpace=wrap;html=1;swimlaneFillColor=none;" parent="etqEuHp1loXPazJlGjv_-507" vertex="1">
          <mxGeometry width="30" height="30" as="geometry">
            <mxRectangle width="30" height="30" as="alternateBounds" />
          </mxGeometry>
        </mxCell>
        <mxCell id="etqEuHp1loXPazJlGjv_-509" value="rate_id" style="shape=partialRectangle;connectable=0;fillColor=none;top=0;left=0;bottom=0;right=0;align=left;spacingLeft=6;fontStyle=1;overflow=hidden;swimlaneFillColor=none;strokeColor=default;whiteSpace=wrap;html=1;fontColor=default;" parent="etqEuHp1loXPazJlGjv_-507" vertex="1">
          <mxGeometry x="30" width="180" height="30" as="geometry">
            <mxRectangle width="180" height="30" as="alternateBounds" />
          </mxGeometry>
        </mxCell>
        <mxCell id="etqEuHp1loXPazJlGjv_-510" value="" style="shape=tableRow;horizontal=0;startSize=0;swimlaneHead=0;swimlaneBody=0;fillColor=none;collapsible=0;dropTarget=0;points=[[0,0.5],[1,0.5]];portConstraint=eastwest;top=0;left=0;right=0;bottom=1;swimlaneFillColor=none;" parent="etqEuHp1loXPazJlGjv_-506" vertex="1">
          <mxGeometry y="60" width="210" height="30" as="geometry" />
        </mxCell>
        <mxCell id="etqEuHp1loXPazJlGjv_-511" value="FK" style="shape=partialRectangle;connectable=0;fillColor=none;top=0;left=0;bottom=0;right=0;editable=1;overflow=hidden;whiteSpace=wrap;html=1;swimlaneFillColor=none;" parent="etqEuHp1loXPazJlGjv_-510" vertex="1">
          <mxGeometry width="30" height="30" as="geometry">
            <mxRectangle width="30" height="30" as="alternateBounds" />
          </mxGeometry>
        </mxCell>
        <mxCell id="etqEuHp1loXPazJlGjv_-512" value="from_currency_id" style="shape=partialRectangle;connectable=0;fillColor=none;top=0;left=0;bottom=0;right=0;align=left;spacingLeft=6;overflow=hidden;whiteSpace=wrap;html=1;swimlaneFillColor=none;" parent="etqEuHp1loXPazJlGjv_-510" vertex="1">
          <mxGeometry x="30" width="180" height="30" as="geometry">
            <mxRectangle width="180" height="30" as="alternateBounds" />
          </mxGeometry>
        </mxCell>
        <mxCell id="etqEuHp1loXPazJlGjv_-513" value="" style="shape=tableRow;horizontal=0;startSize=0;swimlaneHead=0;swimlaneBody=0;fillColor=none;collapsible=0;dropTarget=0;points=[[0,0.5],[1,0.5]];portConstraint=eastwest;top=0;left=0;right=0;bottom=1;swimlaneFillColor=none;" parent="etqEuHp1loXPazJlGjv_-506" vertex="1">
          <mxGeometry y="90" width="210" height="30" as="geometry" />
        </mxCell>
        <mxCell id="etqEuHp1loXPazJlGjv_-514" value="" style="shape=partialRectangle;connectable=0;fillColor=none;top=0;left=0;bottom=0;right=0;editable=1;overflow=hidden;whiteSpace=wrap;html=1;swimlaneFillColor=none;" parent="etqEuHp1loXPazJlGjv_-513" vertex="1">
          <mxGeometry width="30" height="30" as="geometry">
            <mxRectangle width="30" height="30" as="alternateBounds" />
          </mxGeometry>
        </mxCell>
        <mxCell id="etqEuHp1loXPazJlGjv_-515" value="to_currency_id" style="shape=partialRectangle;connectable=0;fillColor=none;top=0;left=0;bottom=0;right=0;align=left;spacingLeft=6;overflow=hidden;whiteSpace=wrap;html=1;swimlaneFillColor=none;" parent="etqEuHp1loXPazJlGjv_-513" vertex="1">
          <mxGeometry x="30" width="180" height="30" as="geometry">
            <mxRectangle width="180" height="30" as="alternateBounds" />
          </mxGeometry>
        </mxCell>
        <mxCell id="etqEuHp1loXPazJlGjv_-516" value="" style="shape=tableRow;horizontal=0;startSize=0;swimlaneHead=0;swimlaneBody=0;fillColor=none;collapsible=0;dropTarget=0;points=[[0,0.5],[1,0.5]];portConstraint=eastwest;top=0;left=0;right=0;bottom=1;swimlaneFillColor=none;" parent="etqEuHp1loXPazJlGjv_-506" vertex="1">
          <mxGeometry y="120" width="210" height="30" as="geometry" />
        </mxCell>
        <mxCell id="etqEuHp1loXPazJlGjv_-517" value="" style="shape=partialRectangle;connectable=0;fillColor=none;top=0;left=0;bottom=0;right=0;editable=1;overflow=hidden;whiteSpace=wrap;html=1;swimlaneFillColor=none;" parent="etqEuHp1loXPazJlGjv_-516" vertex="1">
          <mxGeometry width="30" height="30" as="geometry">
            <mxRectangle width="30" height="30" as="alternateBounds" />
          </mxGeometry>
        </mxCell>
        <mxCell id="etqEuHp1loXPazJlGjv_-518" value="rate" style="shape=partialRectangle;connectable=0;fillColor=none;top=0;left=0;bottom=0;right=0;align=left;spacingLeft=6;overflow=hidden;whiteSpace=wrap;html=1;swimlaneFillColor=none;" parent="etqEuHp1loXPazJlGjv_-516" vertex="1">
          <mxGeometry x="30" width="180" height="30" as="geometry">
            <mxRectangle width="180" height="30" as="alternateBounds" />
          </mxGeometry>
        </mxCell>
        <mxCell id="etqEuHp1loXPazJlGjv_-519" value="" style="shape=tableRow;horizontal=0;startSize=0;swimlaneHead=0;swimlaneBody=0;fillColor=none;collapsible=0;dropTarget=0;points=[[0,0.5],[1,0.5]];portConstraint=eastwest;top=0;left=0;right=0;bottom=1;swimlaneFillColor=none;" parent="etqEuHp1loXPazJlGjv_-506" vertex="1">
          <mxGeometry y="150" width="210" height="30" as="geometry" />
        </mxCell>
        <mxCell id="etqEuHp1loXPazJlGjv_-520" value="" style="shape=partialRectangle;connectable=0;fillColor=none;top=0;left=0;bottom=0;right=0;editable=1;overflow=hidden;whiteSpace=wrap;html=1;swimlaneFillColor=none;" parent="etqEuHp1loXPazJlGjv_-519" vertex="1">
          <mxGeometry width="30" height="30" as="geometry">
            <mxRectangle width="30" height="30" as="alternateBounds" />
          </mxGeometry>
        </mxCell>
        <mxCell id="etqEuHp1loXPazJlGjv_-521" value="effective_date" style="shape=partialRectangle;connectable=0;fillColor=none;top=0;left=0;bottom=0;right=0;align=left;spacingLeft=6;overflow=hidden;whiteSpace=wrap;html=1;swimlaneFillColor=none;" parent="etqEuHp1loXPazJlGjv_-519" vertex="1">
          <mxGeometry x="30" width="180" height="30" as="geometry">
            <mxRectangle width="180" height="30" as="alternateBounds" />
          </mxGeometry>
        </mxCell>
        <mxCell id="etqEuHp1loXPazJlGjv_-522" value="" style="shape=tableRow;horizontal=0;startSize=0;swimlaneHead=0;swimlaneBody=0;fillColor=none;collapsible=0;dropTarget=0;points=[[0,0.5],[1,0.5]];portConstraint=eastwest;top=0;left=0;right=0;bottom=0;swimlaneFillColor=none;" parent="etqEuHp1loXPazJlGjv_-506" vertex="1">
          <mxGeometry y="180" width="210" height="30" as="geometry" />
        </mxCell>
        <mxCell id="etqEuHp1loXPazJlGjv_-523" value="" style="shape=partialRectangle;connectable=0;fillColor=none;top=0;left=0;bottom=0;right=0;editable=1;overflow=hidden;whiteSpace=wrap;html=1;swimlaneFillColor=none;" parent="etqEuHp1loXPazJlGjv_-522" vertex="1">
          <mxGeometry width="30" height="30" as="geometry">
            <mxRectangle width="30" height="30" as="alternateBounds" />
          </mxGeometry>
        </mxCell>
        <mxCell id="etqEuHp1loXPazJlGjv_-524" value="create_at" style="shape=partialRectangle;connectable=0;fillColor=none;top=0;left=0;bottom=0;right=0;align=left;spacingLeft=6;overflow=hidden;whiteSpace=wrap;html=1;swimlaneFillColor=none;" parent="etqEuHp1loXPazJlGjv_-522" vertex="1">
          <mxGeometry x="30" width="180" height="30" as="geometry">
            <mxRectangle width="180" height="30" as="alternateBounds" />
          </mxGeometry>
        </mxCell>
        <mxCell id="QP6FGKmBum78utNL4Y1V-74" value="" style="shape=tableRow;horizontal=0;startSize=0;swimlaneHead=0;swimlaneBody=0;fillColor=none;collapsible=0;dropTarget=0;points=[[0,0.5],[1,0.5]];portConstraint=eastwest;top=0;left=0;right=0;bottom=0;swimlaneFillColor=none;" vertex="1" parent="etqEuHp1loXPazJlGjv_-506">
          <mxGeometry y="210" width="210" height="30" as="geometry" />
        </mxCell>
        <mxCell id="QP6FGKmBum78utNL4Y1V-75" value="" style="shape=partialRectangle;connectable=0;fillColor=none;top=0;left=0;bottom=0;right=0;editable=1;overflow=hidden;whiteSpace=wrap;html=1;swimlaneFillColor=none;" vertex="1" parent="QP6FGKmBum78utNL4Y1V-74">
          <mxGeometry width="30" height="30" as="geometry">
            <mxRectangle width="30" height="30" as="alternateBounds" />
          </mxGeometry>
        </mxCell>
        <mxCell id="QP6FGKmBum78utNL4Y1V-76" value="update_at" style="shape=partialRectangle;connectable=0;fillColor=none;top=0;left=0;bottom=0;right=0;align=left;spacingLeft=6;overflow=hidden;whiteSpace=wrap;html=1;swimlaneFillColor=none;" vertex="1" parent="QP6FGKmBum78utNL4Y1V-74">
          <mxGeometry x="30" width="180" height="30" as="geometry">
            <mxRectangle width="180" height="30" as="alternateBounds" />
          </mxGeometry>
        </mxCell>
        <mxCell id="etqEuHp1loXPazJlGjv_-525" value="FK" style="shape=partialRectangle;connectable=0;fillColor=none;top=0;left=0;bottom=0;right=0;editable=1;overflow=hidden;whiteSpace=wrap;html=1;swimlaneFillColor=none;" parent="etqEuHp1loXPazJlGjv_-505" vertex="1">
          <mxGeometry y="90" width="30" height="30" as="geometry">
            <mxRectangle width="30" height="30" as="alternateBounds" />
          </mxGeometry>
        </mxCell>
        <mxCell id="etqEuHp1loXPazJlGjv_-526" value="int" style="shape=partialRectangle;connectable=0;fillColor=none;top=0;left=1;bottom=0;right=0;editable=1;overflow=hidden;whiteSpace=wrap;html=1;swimlaneFillColor=none;" parent="etqEuHp1loXPazJlGjv_-505" vertex="1">
          <mxGeometry x="140" y="60" width="70" height="30" as="geometry">
            <mxRectangle width="30" height="30" as="alternateBounds" />
          </mxGeometry>
        </mxCell>
        <mxCell id="etqEuHp1loXPazJlGjv_-527" value="int" style="shape=partialRectangle;connectable=0;fillColor=none;top=0;left=1;bottom=0;right=0;editable=1;overflow=hidden;whiteSpace=wrap;html=1;swimlaneFillColor=none;" parent="etqEuHp1loXPazJlGjv_-505" vertex="1">
          <mxGeometry x="140" y="90" width="70" height="30" as="geometry">
            <mxRectangle width="30" height="30" as="alternateBounds" />
          </mxGeometry>
        </mxCell>
        <mxCell id="etqEuHp1loXPazJlGjv_-528" value="dacimal" style="shape=partialRectangle;connectable=0;fillColor=none;top=0;left=1;bottom=0;right=0;editable=1;overflow=hidden;whiteSpace=wrap;html=1;swimlaneFillColor=none;" parent="etqEuHp1loXPazJlGjv_-505" vertex="1">
          <mxGeometry x="140" y="120" width="70" height="30" as="geometry">
            <mxRectangle width="30" height="30" as="alternateBounds" />
          </mxGeometry>
        </mxCell>
        <mxCell id="etqEuHp1loXPazJlGjv_-529" value="date" style="shape=partialRectangle;connectable=0;fillColor=none;top=0;left=1;bottom=0;right=0;editable=1;overflow=hidden;whiteSpace=wrap;html=1;swimlaneFillColor=none;" parent="etqEuHp1loXPazJlGjv_-505" vertex="1">
          <mxGeometry x="140" y="150" width="70" height="30" as="geometry">
            <mxRectangle width="30" height="30" as="alternateBounds" />
          </mxGeometry>
        </mxCell>
        <mxCell id="etqEuHp1loXPazJlGjv_-530" value="int" style="shape=partialRectangle;connectable=0;fillColor=none;top=0;left=1;bottom=0;right=0;editable=1;overflow=hidden;whiteSpace=wrap;html=1;swimlaneFillColor=none;" parent="etqEuHp1loXPazJlGjv_-505" vertex="1">
          <mxGeometry x="140" y="30" width="70" height="30" as="geometry">
            <mxRectangle width="30" height="30" as="alternateBounds" />
          </mxGeometry>
        </mxCell>
        <mxCell id="etqEuHp1loXPazJlGjv_-531" value="datetime" style="shape=partialRectangle;connectable=0;fillColor=none;top=0;left=1;bottom=0;right=0;editable=1;overflow=hidden;whiteSpace=wrap;html=1;swimlaneFillColor=none;" parent="etqEuHp1loXPazJlGjv_-505" vertex="1">
          <mxGeometry x="140" y="180" width="70" height="30" as="geometry">
            <mxRectangle width="30" height="30" as="alternateBounds" />
          </mxGeometry>
        </mxCell>
        <mxCell id="etqEuHp1loXPazJlGjv_-532" value="" style="group;strokeColor=default;" parent="1" vertex="1" connectable="0">
          <mxGeometry x="1030" y="379.90999999999997" width="210" height="210" as="geometry" />
        </mxCell>
        <mxCell id="etqEuHp1loXPazJlGjv_-533" value="WALLETS" style="shape=table;startSize=30;container=1;collapsible=1;childLayout=tableLayout;fixedRows=1;rowLines=0;fontStyle=1;align=center;resizeLast=1;html=1;swimlaneFillColor=none;" parent="etqEuHp1loXPazJlGjv_-532" vertex="1">
          <mxGeometry width="210" height="210" as="geometry" />
        </mxCell>
        <mxCell id="etqEuHp1loXPazJlGjv_-534" value="" style="shape=tableRow;horizontal=0;startSize=0;swimlaneHead=0;swimlaneBody=0;fillColor=none;collapsible=0;dropTarget=0;points=[[0,0.5],[1,0.5]];portConstraint=eastwest;top=0;left=0;right=0;bottom=1;swimlaneFillColor=none;" parent="etqEuHp1loXPazJlGjv_-533" vertex="1">
          <mxGeometry y="30" width="210" height="30" as="geometry" />
        </mxCell>
        <mxCell id="etqEuHp1loXPazJlGjv_-535" value="PK" style="shape=partialRectangle;connectable=0;fillColor=none;top=0;left=0;bottom=0;right=0;fontStyle=1;overflow=hidden;whiteSpace=wrap;html=1;swimlaneFillColor=none;" parent="etqEuHp1loXPazJlGjv_-534" vertex="1">
          <mxGeometry width="30" height="30" as="geometry">
            <mxRectangle width="30" height="30" as="alternateBounds" />
          </mxGeometry>
        </mxCell>
        <mxCell id="etqEuHp1loXPazJlGjv_-536" value="wallet_id" style="shape=partialRectangle;connectable=0;fillColor=none;top=0;left=0;bottom=0;right=0;align=left;spacingLeft=6;fontStyle=1;overflow=hidden;swimlaneFillColor=none;strokeColor=default;whiteSpace=wrap;html=1;fontColor=default;" parent="etqEuHp1loXPazJlGjv_-534" vertex="1">
          <mxGeometry x="30" width="180" height="30" as="geometry">
            <mxRectangle width="180" height="30" as="alternateBounds" />
          </mxGeometry>
        </mxCell>
        <mxCell id="etqEuHp1loXPazJlGjv_-537" value="" style="shape=tableRow;horizontal=0;startSize=0;swimlaneHead=0;swimlaneBody=0;fillColor=none;collapsible=0;dropTarget=0;points=[[0,0.5],[1,0.5]];portConstraint=eastwest;top=0;left=0;right=0;bottom=1;swimlaneFillColor=none;" parent="etqEuHp1loXPazJlGjv_-533" vertex="1">
          <mxGeometry y="60" width="210" height="30" as="geometry" />
        </mxCell>
        <mxCell id="etqEuHp1loXPazJlGjv_-538" value="FK" style="shape=partialRectangle;connectable=0;fillColor=none;top=0;left=0;bottom=0;right=0;editable=1;overflow=hidden;whiteSpace=wrap;html=1;swimlaneFillColor=none;" parent="etqEuHp1loXPazJlGjv_-537" vertex="1">
          <mxGeometry width="30" height="30" as="geometry">
            <mxRectangle width="30" height="30" as="alternateBounds" />
          </mxGeometry>
        </mxCell>
        <mxCell id="etqEuHp1loXPazJlGjv_-539" value="user_id" style="shape=partialRectangle;connectable=0;fillColor=none;top=0;left=0;bottom=0;right=0;align=left;spacingLeft=6;overflow=hidden;whiteSpace=wrap;html=1;swimlaneFillColor=none;" parent="etqEuHp1loXPazJlGjv_-537" vertex="1">
          <mxGeometry x="30" width="180" height="30" as="geometry">
            <mxRectangle width="180" height="30" as="alternateBounds" />
          </mxGeometry>
        </mxCell>
        <mxCell id="etqEuHp1loXPazJlGjv_-540" value="" style="shape=tableRow;horizontal=0;startSize=0;swimlaneHead=0;swimlaneBody=0;fillColor=none;collapsible=0;dropTarget=0;points=[[0,0.5],[1,0.5]];portConstraint=eastwest;top=0;left=0;right=0;bottom=1;swimlaneFillColor=none;" parent="etqEuHp1loXPazJlGjv_-533" vertex="1">
          <mxGeometry y="90" width="210" height="30" as="geometry" />
        </mxCell>
        <mxCell id="etqEuHp1loXPazJlGjv_-541" value="" style="shape=partialRectangle;connectable=0;fillColor=none;top=0;left=0;bottom=0;right=0;editable=1;overflow=hidden;whiteSpace=wrap;html=1;swimlaneFillColor=none;" parent="etqEuHp1loXPazJlGjv_-540" vertex="1">
          <mxGeometry width="30" height="30" as="geometry">
            <mxRectangle width="30" height="30" as="alternateBounds" />
          </mxGeometry>
        </mxCell>
        <mxCell id="etqEuHp1loXPazJlGjv_-542" value="currency_id" style="shape=partialRectangle;connectable=0;fillColor=none;top=0;left=0;bottom=0;right=0;align=left;spacingLeft=6;overflow=hidden;whiteSpace=wrap;html=1;swimlaneFillColor=none;" parent="etqEuHp1loXPazJlGjv_-540" vertex="1">
          <mxGeometry x="30" width="180" height="30" as="geometry">
            <mxRectangle width="180" height="30" as="alternateBounds" />
          </mxGeometry>
        </mxCell>
        <mxCell id="etqEuHp1loXPazJlGjv_-543" value="" style="shape=tableRow;horizontal=0;startSize=0;swimlaneHead=0;swimlaneBody=0;fillColor=none;collapsible=0;dropTarget=0;points=[[0,0.5],[1,0.5]];portConstraint=eastwest;top=0;left=0;right=0;bottom=1;swimlaneFillColor=none;" parent="etqEuHp1loXPazJlGjv_-533" vertex="1">
          <mxGeometry y="120" width="210" height="30" as="geometry" />
        </mxCell>
        <mxCell id="etqEuHp1loXPazJlGjv_-544" value="" style="shape=partialRectangle;connectable=0;fillColor=none;top=0;left=0;bottom=0;right=0;editable=1;overflow=hidden;whiteSpace=wrap;html=1;swimlaneFillColor=none;" parent="etqEuHp1loXPazJlGjv_-543" vertex="1">
          <mxGeometry width="30" height="30" as="geometry">
            <mxRectangle width="30" height="30" as="alternateBounds" />
          </mxGeometry>
        </mxCell>
        <mxCell id="etqEuHp1loXPazJlGjv_-545" value="balance" style="shape=partialRectangle;connectable=0;fillColor=none;top=0;left=0;bottom=0;right=0;align=left;spacingLeft=6;overflow=hidden;whiteSpace=wrap;html=1;swimlaneFillColor=none;" parent="etqEuHp1loXPazJlGjv_-543" vertex="1">
          <mxGeometry x="30" width="180" height="30" as="geometry">
            <mxRectangle width="180" height="30" as="alternateBounds" />
          </mxGeometry>
        </mxCell>
        <mxCell id="etqEuHp1loXPazJlGjv_-546" value="" style="shape=tableRow;horizontal=0;startSize=0;swimlaneHead=0;swimlaneBody=0;fillColor=none;collapsible=0;dropTarget=0;points=[[0,0.5],[1,0.5]];portConstraint=eastwest;top=0;left=0;right=0;bottom=1;swimlaneFillColor=none;" parent="etqEuHp1loXPazJlGjv_-533" vertex="1">
          <mxGeometry y="150" width="210" height="30" as="geometry" />
        </mxCell>
        <mxCell id="etqEuHp1loXPazJlGjv_-547" value="" style="shape=partialRectangle;connectable=0;fillColor=none;top=0;left=0;bottom=0;right=0;editable=1;overflow=hidden;whiteSpace=wrap;html=1;swimlaneFillColor=none;" parent="etqEuHp1loXPazJlGjv_-546" vertex="1">
          <mxGeometry width="30" height="30" as="geometry">
            <mxRectangle width="30" height="30" as="alternateBounds" />
          </mxGeometry>
        </mxCell>
        <mxCell id="etqEuHp1loXPazJlGjv_-548" value="create_at" style="shape=partialRectangle;connectable=0;fillColor=none;top=0;left=0;bottom=0;right=0;align=left;spacingLeft=6;overflow=hidden;whiteSpace=wrap;html=1;swimlaneFillColor=none;" parent="etqEuHp1loXPazJlGjv_-546" vertex="1">
          <mxGeometry x="30" width="180" height="30" as="geometry">
            <mxRectangle width="180" height="30" as="alternateBounds" />
          </mxGeometry>
        </mxCell>
        <mxCell id="etqEuHp1loXPazJlGjv_-549" value="" style="shape=tableRow;horizontal=0;startSize=0;swimlaneHead=0;swimlaneBody=0;fillColor=none;collapsible=0;dropTarget=0;points=[[0,0.5],[1,0.5]];portConstraint=eastwest;top=0;left=0;right=0;bottom=0;swimlaneFillColor=none;" parent="etqEuHp1loXPazJlGjv_-533" vertex="1">
          <mxGeometry y="180" width="210" height="30" as="geometry" />
        </mxCell>
        <mxCell id="etqEuHp1loXPazJlGjv_-550" value="" style="shape=partialRectangle;connectable=0;fillColor=none;top=0;left=0;bottom=0;right=0;editable=1;overflow=hidden;whiteSpace=wrap;html=1;swimlaneFillColor=none;" parent="etqEuHp1loXPazJlGjv_-549" vertex="1">
          <mxGeometry width="30" height="30" as="geometry">
            <mxRectangle width="30" height="30" as="alternateBounds" />
          </mxGeometry>
        </mxCell>
        <mxCell id="etqEuHp1loXPazJlGjv_-551" value="updated_at" style="shape=partialRectangle;connectable=0;fillColor=none;top=0;left=0;bottom=0;right=0;align=left;spacingLeft=6;overflow=hidden;whiteSpace=wrap;html=1;swimlaneFillColor=none;" parent="etqEuHp1loXPazJlGjv_-549" vertex="1">
          <mxGeometry x="30" width="180" height="30" as="geometry">
            <mxRectangle width="180" height="30" as="alternateBounds" />
          </mxGeometry>
        </mxCell>
        <mxCell id="etqEuHp1loXPazJlGjv_-552" value="FK" style="shape=partialRectangle;connectable=0;fillColor=none;top=0;left=0;bottom=0;right=0;editable=1;overflow=hidden;whiteSpace=wrap;html=1;swimlaneFillColor=none;" parent="etqEuHp1loXPazJlGjv_-532" vertex="1">
          <mxGeometry y="90" width="30" height="30" as="geometry">
            <mxRectangle width="30" height="30" as="alternateBounds" />
          </mxGeometry>
        </mxCell>
        <mxCell id="etqEuHp1loXPazJlGjv_-553" value="int" style="shape=partialRectangle;connectable=0;fillColor=none;top=0;left=1;bottom=0;right=0;editable=1;overflow=hidden;whiteSpace=wrap;html=1;swimlaneFillColor=none;" parent="etqEuHp1loXPazJlGjv_-532" vertex="1">
          <mxGeometry x="140" y="60" width="70" height="30" as="geometry">
            <mxRectangle width="30" height="30" as="alternateBounds" />
          </mxGeometry>
        </mxCell>
        <mxCell id="etqEuHp1loXPazJlGjv_-554" value="int" style="shape=partialRectangle;connectable=0;fillColor=none;top=0;left=1;bottom=0;right=0;editable=1;overflow=hidden;whiteSpace=wrap;html=1;swimlaneFillColor=none;" parent="etqEuHp1loXPazJlGjv_-532" vertex="1">
          <mxGeometry x="140" y="90" width="70" height="30" as="geometry">
            <mxRectangle width="30" height="30" as="alternateBounds" />
          </mxGeometry>
        </mxCell>
        <mxCell id="etqEuHp1loXPazJlGjv_-555" value="dacimal" style="shape=partialRectangle;connectable=0;fillColor=none;top=0;left=1;bottom=0;right=0;editable=1;overflow=hidden;whiteSpace=wrap;html=1;swimlaneFillColor=none;" parent="etqEuHp1loXPazJlGjv_-532" vertex="1">
          <mxGeometry x="140" y="120" width="70" height="30" as="geometry">
            <mxRectangle width="30" height="30" as="alternateBounds" />
          </mxGeometry>
        </mxCell>
        <mxCell id="etqEuHp1loXPazJlGjv_-556" value="datetime" style="shape=partialRectangle;connectable=0;fillColor=none;top=0;left=1;bottom=0;right=0;editable=1;overflow=hidden;whiteSpace=wrap;html=1;swimlaneFillColor=none;" parent="etqEuHp1loXPazJlGjv_-532" vertex="1">
          <mxGeometry x="140" y="150" width="70" height="30" as="geometry">
            <mxRectangle width="30" height="30" as="alternateBounds" />
          </mxGeometry>
        </mxCell>
        <mxCell id="etqEuHp1loXPazJlGjv_-557" value="int" style="shape=partialRectangle;connectable=0;fillColor=none;top=0;left=1;bottom=0;right=0;editable=1;overflow=hidden;whiteSpace=wrap;html=1;swimlaneFillColor=none;" parent="etqEuHp1loXPazJlGjv_-532" vertex="1">
          <mxGeometry x="140" y="30" width="70" height="30" as="geometry">
            <mxRectangle width="30" height="30" as="alternateBounds" />
          </mxGeometry>
        </mxCell>
        <mxCell id="etqEuHp1loXPazJlGjv_-558" value="datetime" style="shape=partialRectangle;connectable=0;fillColor=none;top=0;left=1;bottom=0;right=0;editable=1;overflow=hidden;whiteSpace=wrap;html=1;swimlaneFillColor=none;" parent="etqEuHp1loXPazJlGjv_-532" vertex="1">
          <mxGeometry x="140" y="180" width="70" height="30" as="geometry">
            <mxRectangle width="30" height="30" as="alternateBounds" />
          </mxGeometry>
        </mxCell>
        <mxCell id="etqEuHp1loXPazJlGjv_-571" value="" style="edgeStyle=orthogonalEdgeStyle;fontSize=12;html=1;endArrow=ERzeroToMany;startArrow=ERmandOne;rounded=0;curved=1;exitX=0;exitY=0.5;exitDx=0;exitDy=0;" parent="1" source="etqEuHp1loXPazJlGjv_-166" edge="1" target="etqEuHp1loXPazJlGjv_-225">
          <mxGeometry width="100" height="100" relative="1" as="geometry">
            <mxPoint x="560" y="439.90999999999997" as="sourcePoint" />
            <mxPoint x="317.5600000000002" y="719.91" as="targetPoint" />
            <Array as="points">
              <mxPoint x="360" y="464.90999999999997" />
            </Array>
          </mxGeometry>
        </mxCell>
        <mxCell id="etqEuHp1loXPazJlGjv_-574" value="&lt;div&gt;to_user_id&lt;/div&gt;receive" style="edgeLabel;html=1;align=center;verticalAlign=middle;resizable=0;points=[];" parent="etqEuHp1loXPazJlGjv_-571" vertex="1" connectable="0">
          <mxGeometry x="0.3181" y="35" relative="1" as="geometry">
            <mxPoint x="25" y="25" as="offset" />
          </mxGeometry>
        </mxCell>
        <mxCell id="etqEuHp1loXPazJlGjv_-572" value="" style="edgeStyle=orthogonalEdgeStyle;fontSize=12;html=1;endArrow=ERzeroToMany;startArrow=ERmandOne;rounded=0;curved=1;exitX=0;exitY=0.5;exitDx=0;exitDy=0;" parent="1" source="etqEuHp1loXPazJlGjv_-159" target="etqEuHp1loXPazJlGjv_-225" edge="1">
          <mxGeometry width="100" height="100" relative="1" as="geometry">
            <mxPoint x="578.4399999999998" y="559.91" as="sourcePoint" />
            <mxPoint x="400" y="699.91" as="targetPoint" />
            <Array as="points">
              <mxPoint x="400" y="494.90999999999997" />
            </Array>
          </mxGeometry>
        </mxCell>
        <mxCell id="etqEuHp1loXPazJlGjv_-573" value="&lt;div&gt;from_user_id&lt;/div&gt;send" style="edgeLabel;html=1;align=center;verticalAlign=middle;resizable=0;points=[];" parent="etqEuHp1loXPazJlGjv_-572" vertex="1" connectable="0">
          <mxGeometry x="0.2786" y="41" relative="1" as="geometry">
            <mxPoint x="-51" y="-41" as="offset" />
          </mxGeometry>
        </mxCell>
        <mxCell id="etqEuHp1loXPazJlGjv_-575" value="" style="fontSize=12;html=1;endArrow=ERzeroToMany;startArrow=ERmandOne;rounded=0;exitX=0.485;exitY=0.986;exitDx=0;exitDy=0;exitPerimeter=0;" parent="1" source="etqEuHp1loXPazJlGjv_-156" target="etqEuHp1loXPazJlGjv_-297" edge="1">
          <mxGeometry width="100" height="100" relative="1" as="geometry">
            <mxPoint x="700" y="579.91" as="sourcePoint" />
            <mxPoint x="500" y="804.91" as="targetPoint" />
          </mxGeometry>
        </mxCell>
        <mxCell id="etqEuHp1loXPazJlGjv_-577" value="has" style="edgeLabel;html=1;align=center;verticalAlign=middle;resizable=0;points=[];" parent="etqEuHp1loXPazJlGjv_-575" vertex="1" connectable="0">
          <mxGeometry x="-0.0809" relative="1" as="geometry">
            <mxPoint as="offset" />
          </mxGeometry>
        </mxCell>
        <mxCell id="etqEuHp1loXPazJlGjv_-586" value="" style="edgeStyle=orthogonalEdgeStyle;fontSize=12;html=1;endArrow=ERzeroToMany;startArrow=ERmandOne;rounded=0;curved=1;strokeColor=default;align=center;verticalAlign=middle;fontFamily=Helvetica;fontColor=default;labelBackgroundColor=default;" parent="1" edge="1">
          <mxGeometry width="100" height="100" relative="1" as="geometry">
            <mxPoint x="760" y="409.90999999999997" as="sourcePoint" />
            <mxPoint x="900" y="679.91" as="targetPoint" />
            <Array as="points">
              <mxPoint x="900" y="409.90999999999997" />
            </Array>
          </mxGeometry>
        </mxCell>
        <mxCell id="etqEuHp1loXPazJlGjv_-587" value="make" style="edgeLabel;html=1;align=center;verticalAlign=middle;resizable=0;points=[];rounded=0;strokeColor=default;fontFamily=Helvetica;fontSize=12;fontColor=default;labelBackgroundColor=default;" parent="etqEuHp1loXPazJlGjv_-586" vertex="1" connectable="0">
          <mxGeometry x="0.3181" y="35" relative="1" as="geometry">
            <mxPoint x="-50" y="-5" as="offset" />
          </mxGeometry>
        </mxCell>
        <mxCell id="etqEuHp1loXPazJlGjv_-601" value="" style="edgeStyle=orthogonalEdgeStyle;fontSize=12;html=1;endArrow=ERzeroToMany;startArrow=ERmandOne;rounded=0;curved=1;strokeColor=default;align=center;verticalAlign=middle;fontFamily=Helvetica;fontColor=default;labelBackgroundColor=default;exitX=0.73;exitY=1.073;exitDx=0;exitDy=0;exitPerimeter=0;entryX=0.698;entryY=0;entryDx=0;entryDy=0;entryPerimeter=0;" parent="1" edge="1" target="etqEuHp1loXPazJlGjv_-506">
          <mxGeometry width="100" height="100" relative="1" as="geometry">
            <mxPoint x="1556.3999999999999" y="519.9100000000001" as="sourcePoint" />
            <mxPoint x="1557" y="657.7199999999999" as="targetPoint" />
            <Array as="points">
              <mxPoint x="1556" y="527.91" />
            </Array>
          </mxGeometry>
        </mxCell>
        <mxCell id="etqEuHp1loXPazJlGjv_-602" value="" style="edgeLabel;html=1;align=center;verticalAlign=middle;resizable=0;points=[];rounded=0;strokeColor=default;fontFamily=Helvetica;fontSize=12;fontColor=default;labelBackgroundColor=default;" parent="etqEuHp1loXPazJlGjv_-601" vertex="1" connectable="0">
          <mxGeometry x="0.3181" y="35" relative="1" as="geometry">
            <mxPoint x="-50" y="-5" as="offset" />
          </mxGeometry>
        </mxCell>
        <mxCell id="etqEuHp1loXPazJlGjv_-606" value="to_currency_id" style="edgeLabel;html=1;align=center;verticalAlign=middle;resizable=0;points=[];" parent="etqEuHp1loXPazJlGjv_-601" vertex="1" connectable="0">
          <mxGeometry x="-0.1528" y="1" relative="1" as="geometry">
            <mxPoint as="offset" />
          </mxGeometry>
        </mxCell>
        <mxCell id="etqEuHp1loXPazJlGjv_-603" value="" style="edgeStyle=orthogonalEdgeStyle;fontSize=12;html=1;endArrow=ERzeroToMany;startArrow=ERmandOne;rounded=0;curved=1;strokeColor=default;align=center;verticalAlign=middle;fontFamily=Helvetica;fontColor=default;labelBackgroundColor=default;entryX=0.233;entryY=0;entryDx=0;entryDy=0;entryPerimeter=0;" parent="1" edge="1" target="etqEuHp1loXPazJlGjv_-506">
          <mxGeometry width="100" height="100" relative="1" as="geometry">
            <mxPoint x="1460" y="519.91" as="sourcePoint" />
            <mxPoint x="1459" y="649.91" as="targetPoint" />
            <Array as="points" />
          </mxGeometry>
        </mxCell>
        <mxCell id="etqEuHp1loXPazJlGjv_-604" value="" style="edgeLabel;html=1;align=center;verticalAlign=middle;resizable=0;points=[];rounded=0;strokeColor=default;fontFamily=Helvetica;fontSize=12;fontColor=default;labelBackgroundColor=default;" parent="etqEuHp1loXPazJlGjv_-603" vertex="1" connectable="0">
          <mxGeometry x="0.3181" y="35" relative="1" as="geometry">
            <mxPoint x="-50" y="-5" as="offset" />
          </mxGeometry>
        </mxCell>
        <mxCell id="etqEuHp1loXPazJlGjv_-605" value="from_currency_id" style="edgeLabel;html=1;align=center;verticalAlign=middle;resizable=0;points=[];" parent="etqEuHp1loXPazJlGjv_-603" vertex="1" connectable="0">
          <mxGeometry x="-0.1353" y="1" relative="1" as="geometry">
            <mxPoint as="offset" />
          </mxGeometry>
        </mxCell>
        <mxCell id="etqEuHp1loXPazJlGjv_-610" value="" style="edgeStyle=orthogonalEdgeStyle;fontSize=12;html=1;endArrow=ERzeroToMany;startArrow=ERmandOne;rounded=0;curved=1;strokeColor=default;align=center;verticalAlign=middle;fontFamily=Helvetica;fontColor=default;labelBackgroundColor=default;" parent="1" edge="1">
          <mxGeometry width="100" height="100" relative="1" as="geometry">
            <mxPoint x="760" y="359.90999999999997" as="sourcePoint" />
            <mxPoint x="1030" y="469.90999999999997" as="targetPoint" />
            <Array as="points">
              <mxPoint x="940" y="359.90999999999997" />
              <mxPoint x="940" y="469.90999999999997" />
            </Array>
          </mxGeometry>
        </mxCell>
        <mxCell id="QP6FGKmBum78utNL4Y1V-3" value="owns" style="edgeLabel;html=1;align=center;verticalAlign=middle;resizable=0;points=[];" vertex="1" connectable="0" parent="etqEuHp1loXPazJlGjv_-610">
          <mxGeometry x="-0.1583" y="-6" relative="1" as="geometry">
            <mxPoint x="1" y="14" as="offset" />
          </mxGeometry>
        </mxCell>
        <mxCell id="etqEuHp1loXPazJlGjv_-619" value="" style="edgeStyle=orthogonalEdgeStyle;fontSize=12;html=1;endArrow=ERzeroToMany;startArrow=ERmandOne;rounded=0;curved=1;entryX=0.478;entryY=1.003;entryDx=0;entryDy=0;entryPerimeter=0;" parent="1" edge="1">
          <mxGeometry width="100" height="100" relative="1" as="geometry">
            <mxPoint x="1425" y="289.90999999999997" as="sourcePoint" />
            <mxPoint x="1115.02" y="379.90999999999974" as="targetPoint" />
            <Array as="points">
              <mxPoint x="1396.5" y="289.90999999999997" />
              <mxPoint x="1115.5" y="289.90999999999997" />
            </Array>
          </mxGeometry>
        </mxCell>
        <mxCell id="etqEuHp1loXPazJlGjv_-623" value="stored_in" style="edgeLabel;html=1;align=center;verticalAlign=middle;resizable=0;points=[];" parent="etqEuHp1loXPazJlGjv_-619" vertex="1" connectable="0">
          <mxGeometry x="0.049" y="-18" relative="1" as="geometry">
            <mxPoint x="45" y="18" as="offset" />
          </mxGeometry>
        </mxCell>
        <mxCell id="QP6FGKmBum78utNL4Y1V-1" value="" style="edgeStyle=orthogonalEdgeStyle;fontSize=12;html=1;endArrow=ERzeroToMany;startArrow=ERmandOne;rounded=0;curved=1;strokeColor=default;align=center;verticalAlign=middle;fontFamily=Helvetica;fontColor=default;labelBackgroundColor=default;exitX=0;exitY=0.5;exitDx=0;exitDy=0;" edge="1" parent="1" source="etqEuHp1loXPazJlGjv_-450">
          <mxGeometry width="100" height="100" relative="1" as="geometry">
            <mxPoint x="1180" y="719.91" as="sourcePoint" />
            <mxPoint x="1070" y="889.91" as="targetPoint" />
            <Array as="points">
              <mxPoint x="1360" y="444.90999999999997" />
              <mxPoint x="1360" y="889.91" />
            </Array>
          </mxGeometry>
        </mxCell>
        <mxCell id="QP6FGKmBum78utNL4Y1V-2" value="&lt;div&gt;involve&lt;/div&gt;to_currency" style="edgeLabel;html=1;align=center;verticalAlign=middle;resizable=0;points=[];rounded=0;strokeColor=default;fontFamily=Helvetica;fontSize=12;fontColor=default;labelBackgroundColor=default;" vertex="1" connectable="0" parent="QP6FGKmBum78utNL4Y1V-1">
          <mxGeometry x="0.3181" y="35" relative="1" as="geometry">
            <mxPoint x="-36" y="-115" as="offset" />
          </mxGeometry>
        </mxCell>
        <mxCell id="QP6FGKmBum78utNL4Y1V-5" value="" style="edgeStyle=orthogonalEdgeStyle;fontSize=12;html=1;endArrow=ERzeroToMany;startArrow=ERmandOne;rounded=0;curved=1;strokeColor=default;align=center;verticalAlign=middle;fontFamily=Helvetica;fontColor=default;labelBackgroundColor=default;exitX=0;exitY=0.5;exitDx=0;exitDy=0;" edge="1" parent="1">
          <mxGeometry width="100" height="100" relative="1" as="geometry">
            <mxPoint x="1425" y="349.90999999999997" as="sourcePoint" />
            <mxPoint x="1070" y="794.91" as="targetPoint" />
            <Array as="points">
              <mxPoint x="1300" y="349.90999999999997" />
              <mxPoint x="1300" y="794.91" />
            </Array>
          </mxGeometry>
        </mxCell>
        <mxCell id="QP6FGKmBum78utNL4Y1V-6" value="&lt;div&gt;involve&lt;/div&gt;from_currency" style="edgeLabel;html=1;align=center;verticalAlign=middle;resizable=0;points=[];rounded=0;strokeColor=default;fontFamily=Helvetica;fontSize=12;fontColor=default;labelBackgroundColor=default;" vertex="1" connectable="0" parent="QP6FGKmBum78utNL4Y1V-5">
          <mxGeometry x="0.3181" y="35" relative="1" as="geometry">
            <mxPoint x="-75" y="-69" as="offset" />
          </mxGeometry>
        </mxCell>
        <mxCell id="QP6FGKmBum78utNL4Y1V-14" value="datetime" style="shape=partialRectangle;connectable=0;fillColor=none;top=0;left=1;bottom=0;right=0;editable=1;overflow=hidden;whiteSpace=wrap;html=1;swimlaneFillColor=none;" vertex="1" parent="1">
          <mxGeometry x="680" y="1009.9100000000001" width="60" height="30" as="geometry">
            <mxRectangle width="30" height="30" as="alternateBounds" />
          </mxGeometry>
        </mxCell>
        <mxCell id="QP6FGKmBum78utNL4Y1V-69" value="datetime" style="shape=partialRectangle;connectable=0;fillColor=none;top=0;left=1;bottom=0;right=0;editable=1;overflow=hidden;whiteSpace=wrap;html=1;swimlaneFillColor=none;" vertex="1" parent="1">
          <mxGeometry x="1541.47" y="489.90999999999997" width="63.529411764705884" height="30" as="geometry">
            <mxRectangle width="30" height="30" as="alternateBounds" />
          </mxGeometry>
        </mxCell>
        <mxCell id="QP6FGKmBum78utNL4Y1V-73" value="datetime" style="shape=partialRectangle;connectable=0;fillColor=none;top=0;left=1;bottom=0;right=0;editable=1;overflow=hidden;whiteSpace=wrap;html=1;swimlaneFillColor=none;" vertex="1" parent="1">
          <mxGeometry x="407.05882352941177" y="989.91" width="52.94117647058824" height="30" as="geometry">
            <mxRectangle width="30" height="30" as="alternateBounds" />
          </mxGeometry>
        </mxCell>
        <mxCell id="QP6FGKmBum78utNL4Y1V-77" value="datetime" style="shape=partialRectangle;connectable=0;fillColor=none;top=0;left=1;bottom=0;right=0;editable=1;overflow=hidden;whiteSpace=wrap;html=1;swimlaneFillColor=none;" vertex="1" parent="1">
          <mxGeometry x="1550" y="869.91" width="70" height="30" as="geometry">
            <mxRectangle width="30" height="30" as="alternateBounds" />
          </mxGeometry>
        </mxCell>
        <mxCell id="QP6FGKmBum78utNL4Y1V-79" value="" style="edgeStyle=orthogonalEdgeStyle;fontSize=12;html=1;endArrow=ERzeroToMany;startArrow=ERmandOne;rounded=0;curved=1;exitX=0.205;exitY=0.002;exitDx=0;exitDy=0;exitPerimeter=0;" edge="1" parent="1" source="etqEuHp1loXPazJlGjv_-437">
          <mxGeometry width="100" height="100" relative="1" as="geometry">
            <mxPoint x="1460" y="229.91" as="sourcePoint" />
            <mxPoint x="300" y="719.91" as="targetPoint" />
            <Array as="points">
              <mxPoint x="1462" y="189.91" />
              <mxPoint x="300" y="189.91" />
            </Array>
          </mxGeometry>
        </mxCell>
        <mxCell id="QP6FGKmBum78utNL4Y1V-80" value="involves" style="edgeLabel;html=1;align=center;verticalAlign=middle;resizable=0;points=[];" vertex="1" connectable="0" parent="QP6FGKmBum78utNL4Y1V-79">
          <mxGeometry x="0.3181" y="35" relative="1" as="geometry">
            <mxPoint x="346" y="-25" as="offset" />
          </mxGeometry>
        </mxCell>
        <mxCell id="QP6FGKmBum78utNL4Y1V-85" value="&lt;font style=&quot;font-size: 29px;&quot;&gt;Crypto Exchange System – ER Diagram&lt;/font&gt;" style="text;whiteSpace=wrap;html=1;" vertex="1" parent="1">
          <mxGeometry x="130" y="-189" width="850" height="140" as="geometry" />
        </mxCell>
      </root>
    </mxGraphModel>
  </diagram>
</mxfile>
